<?xml version="1.0" encoding="UTF-8" standalone="no"?>
<svg
   height="504.799"
   viewBox="0 0 838.547 504.799"
   width="838.547"
   version="1.1"
   id="svg8323"
   sodipodi:docname="contact.svg"
   inkscape:version="1.2.1 (ef4d3fba62, 2022-07-19, custom)"
   xmlns:inkscape="http://www.inkscape.org/namespaces/inkscape"
   xmlns:sodipodi="http://sodipodi.sourceforge.net/DTD/sodipodi-0.dtd"
   xmlns="http://www.w3.org/2000/svg"
   xmlns:svg="http://www.w3.org/2000/svg">
  <defs
     id="defs8327" />
  <sodipodi:namedview
     id="namedview8325"
     pagecolor="#ffffff"
     bordercolor="#666666"
     borderopacity="1.0"
     inkscape:showpageshadow="2"
     inkscape:pageopacity="0.0"
     inkscape:pagecheckerboard="0"
     inkscape:deskcolor="#d1d1d1"
     showgrid="false"
     inkscape:zoom="0.94294955"
     inkscape:cx="418.89834"
     inkscape:cy="252.92976"
     inkscape:window-width="1312"
     inkscape:window-height="704"
     inkscape:window-x="0"
     inkscape:window-y="0"
     inkscape:window-maximized="1"
     inkscape:current-layer="svg8323" />
  <path
     d="m443.349 157.685h-127.616a4.775 4.775 0 0 1 -4.775-4.775 4.774 4.774 0 0 1 4.775-4.773h127.616a4.774 4.774 0 0 1 4.775 4.773 4.775 4.775 0 0 1 -4.775 4.775z"
     fill="#6f7de0"
     transform="translate(-201.644 -87.18)"
     id="path8185" />
  <path
     d="m674.224 330.2h-38.835a4.774 4.774 0 0 1 -4.775-4.773 4.775 4.775 0 0 1 4.775-4.775h38.835a4.775 4.775 0 0 1 4.776 4.775 4.774 4.774 0 0 1 -4.776 4.773z"
     fill="#fe4777"
     transform="translate(155.27 105.443)"
     id="path8187" />
  <rect
     fill="#fe4777"
     height="14.307"
     rx="1.701"
     width="14.771"
     x="432.982"
     y="6.332"
     id="rect8189" />
  <rect
     fill="#fe4777"
     height="14.307"
     rx="1.701"
     width="14.771"
     x="74.007"
     y="453.298"
     id="rect8191" />
  <g
     fill="none"
     id="g8201">
    <path
       d="m665.671 272.531a10.064 10.064 0 1 1 -10.062-10.2 10.135 10.135 0 0 1 10.062 10.2z"
       stroke="#fff"
       stroke-linecap="round"
       stroke-linejoin="round"
       stroke-width="1.87"
       transform="translate(171.941 40.319)"
       id="path8193" />
    <path
       d="m280.529 246.215a10.389 10.389 0 1 1 -10.388-10.534 10.461 10.461 0 0 1 10.388 10.534z"
       stroke="#fff"
       stroke-linecap="round"
       stroke-linejoin="round"
       stroke-width="1.87"
       transform="translate(-258.818 10.567)"
       id="path8195" />
    <path
       d="m732.557 73.25h53.035"
       stroke="#fff"
       stroke-linecap="round"
       stroke-linejoin="round"
       stroke-width="1.87"
       id="path8197" />
    <path
       d="m38.356 397.404h117.004"
       stroke="#fff"
       stroke-linecap="round"
       stroke-linejoin="round"
       stroke-width="1.87"
       id="path8199" />
  </g>
  <path
     d="m 191.90681,96.040661 h 92.913 a 4.947,4.947 0 0 1 4.947,4.946999 v 87.392 a 4.947,4.947 0 0 1 -4.947,4.947 h -91.335 a 6.525,6.525 0 0 1 -6.525,-6.525 v -85.814 a 4.947,4.947 0 0 1 4.947,-4.946999 z"
     fill="#f94f4f"
     id="path8213" />
  <path
     d="m 261.83981,152.63766 -6.1,-6.1 a 5.347,5.347 0 0 0 -3.922,-1.854 5.652,5.652 0 0 0 -3.924,1.744 l -3.486,3.488 -0.654,-0.328 a 10.246,10.246 0 0 1 -1.09,-0.544 37.636,37.636 0 0 1 -9.044,-8.282 19.714,19.714 0 0 1 -2.832,-4.468 c 0.87,-0.762 1.634,-1.634 2.4,-2.4 0.328,-0.328 0.654,-0.654 0.98,-0.982 a 5.309,5.309 0 0 0 0,-8.062 l -3.05,-3.052 a 9.72,9.72 0 0 1 -0.98,-1.09 l -2.072,-2.07 a 5.644,5.644 0 0 0 -3.922,-1.742 5.4,5.4 0 0 0 -3.922,1.742 l -3.814,3.814 a 8.769,8.769 0 0 0 -2.506,5.34 19.853,19.853 0 0 0 1.416,8.28 44.6,44.6 0 0 0 8.5,14.276 52.966,52.966 0 0 0 17.434,13.62 28.968,28.968 0 0 0 9.806,2.942 h 0.764 a 8.652,8.652 0 0 0 6.538,-2.834 l 0.108,-0.108 a 16.486,16.486 0 0 1 1.962,-1.962 l 1.416,-1.416 a 5.466,5.466 0 0 0 -0.006,-7.952 z m -2.506,5.666 -1.308,1.308 c -0.762,0.652 -1.416,1.416 -2.18,2.178 a 5.176,5.176 0 0 1 -3.922,1.636 h -0.544 a 22.963,22.963 0 0 1 -8.5,-2.616 49.63,49.63 0 0 1 -16.236,-12.748 47.3,47.3 0 0 1 -7.954,-13.186 13.5,13.5 0 0 1 -1.308,-6.756 4.609,4.609 0 0 1 1.526,-3.16 l 3.7,-3.7 a 2.284,2.284 0 0 1 1.526,-0.764 2.083,2.083 0 0 1 1.526,0.764 l 1.962,1.962 a 10.132,10.132 0 0 0 1.088,1.088 l 3.052,3.052 a 2.559,2.559 0 0 1 0.762,1.526 2.286,2.286 0 0 1 -0.762,1.524 c -0.328,0.328 -0.654,0.654 -0.98,0.982 -0.982,0.98 -1.854,1.852 -2.726,2.724 l -0.104,0.109 a 2.386,2.386 0 0 0 -0.654,2.724 v 0.11 a 25.186,25.186 0 0 0 3.6,5.884 40.418,40.418 0 0 0 9.916,9.044 9.08,9.08 0 0 0 1.416,0.762 10.017,10.017 0 0 1 1.09,0.546 l 0.108,0.108 a 2.5,2.5 0 0 0 3.052,-0.544 l 3.814,-3.814 a 1.8,1.8 0 0 1 2.942,0 l 6.1,6.1 a 2.065,2.065 0 0 1 -0.002,3.157 z"
     fill="#ffffff"
     id="path8215" />
  <path
     d="m 711.20884,10.696158 h 85.277 a 4.54,4.54 0 0 1 4.54,4.54 v 80.21 a 4.54,4.54 0 0 1 -4.54,4.54 h -83.828 a 5.989,5.989 0 0 1 -5.989,-5.99 v -78.76 a 4.54,4.54 0 0 1 4.54,-4.54 z"
     fill="#fe4777"
     id="path8217" />
  <path
     d="m 764.89584,48.044158 a 11.457,11.457 0 1 0 -11.457,11.457 11.457,11.457 0 0 0 11.457,-11.457 z m -20.05,0 a 8.593,8.593 0 1 1 8.593,8.591 8.593,8.593 0 0 1 -8.593,-8.591 z"
     fill="#ffffff"
     id="path8219" />
  <path
     d="m 752.28584,81.829158 a 1.428,1.428 0 0 0 2.311,0 c 0.116,-0.159 0.662,-0.906 1.49,-2.083 l 8.454,-13.076 c 3.928,-6.7 7.52,-14.069 7.52,-18.626 a 18.6185,18.6185 0 1 0 -37.237,0 c 0,4.426 3.389,11.506 7.181,18.046 l 8.8,13.662 c 0.82,1.175 1.364,1.918 1.481,2.077 z m 1.156,-49.538 a 15.752,15.752 0 0 1 15.753,15.754 c 0,6.851 -10.471,23.039 -15.753,30.487 -5.281,-7.448 -15.753,-23.636 -15.753,-30.487 a 15.754,15.754 0 0 1 15.75,-15.754 z"
     fill="#ffffff"
     id="path8221" />
  <path
     d="m380.426 486.405h143.993v17.335h-143.993z"
     fill="#fff"
     id="path8255" />
  <path
     d="m 489.62389,147.52975 c 0.12324,-0.0162 0.22919,-0.0389 0.35243,-0.0551 z"
     fill="#f7de9e"
     id="path8273"
     style="stroke-width:1.08107" />
  <path
     d="m789.274 504.16h-648.013"
     fill="none"
     stroke="#0c0b0c"
     stroke-linecap="round"
     stroke-linejoin="round"
     stroke-width="1.277"
     id="path8319" />
  <path
     d="m103.704 504.16h-78.224"
     fill="none"
     stroke="#0c0b0c"
     stroke-linecap="round"
     stroke-linejoin="round"
     stroke-width="1.277"
     id="path8321" />
  <path
     d="m 490.44204,514.60895 c -44.03736,0 -88.04178,-5.22426 -130.50132,-16.77136 -16.30855,-4.43536 -32.61216,-9.94786 -47.73322,-17.46968 l 8.08839,-1.00795 69.2298,-7.80018 c 32.8625,8.80319 66.88944,12.79057 100.94271,12.79057 15.2973,0 30.59623,-0.80374 45.80294,-2.33708 6.65221,-0.67034 13.35877,-1.52019 20.05217,-2.58744 l 49.13151,7.26655 c 1.25007,0.18446 2.49191,0.2734 3.71892,0.2734 12.28,0 23.03324,-8.99261 24.88445,-21.50647 l 2.16416,-14.63025 c 9.34011,-6.27012 17.85671,-13.68984 25.22867,-22.45843 15.98574,-19.01622 25.14303,-43.40328 26.58416,-68.21856 0.39198,-6.70985 0.21575,-13.44936 -0.54022,-20.12463 -2.57426,-22.73183 -11.73813,-44.52653 -25.60254,-62.74229 l 9.51798,-64.35304 c 4.95251,4.46335 10.2509,8.64177 15.23307,13.03102 30.2273,26.63521 50.76533,64.38269 55.29952,104.41456 0.96677,8.51991 1.18747,17.12381 0.69173,25.68818 -1.8397,31.67831 -13.53172,62.80819 -33.93799,87.08325 -38.25312,45.50648 -100.64459,62.51005 -159.79314,68.47547 -19.41148,1.95827 -38.93662,2.98436 -58.46175,2.98436 M 295.55967,470.87792 c -6.94702,-4.54077 -13.49548,-9.65963 -19.50207,-15.46857 -30.50401,-29.50099 -43.38187,-75.20511 -35.51746,-116.90538 7.61406,-40.37116 32.64345,-75.4505 66.47274,-96.55675 l 33.21495,33.21495 c -13.01126,9.4307 -24.05108,21.61188 -32.19217,35.60805 l -11.39886,1.28465 0.88279,0.72961 -3.47516,0.39034 9.94127,5.19957 c -4.27065,8.80648 -7.43124,18.21248 -9.28082,28.01868 -0.67197,3.56411 -1.14961,7.16115 -1.43949,10.77795 l -8.69283,8.59895 -0.0263,0.003 0.003,0.0198 -0.0428,0.0428 c -0.43152,0.20094 -0.70655,0.66045 -0.65221,1.15785 l 11.7052,103.88423 m 74.09869,-211.00267 -22.43372,-22.43372 c -1.46089,-1.46089 -1.46089,-3.83257 0,-5.29511 l 9.28741,-9.28739 c 6.48092,-1.13478 13.09195,-1.79851 19.79853,-1.95829 17.99013,-0.42656 32.12464,-15.56904 30.91903,-33.57728 -0.0379,-0.57316 -0.0742,-1.02608 -0.10713,-1.33572 -7.29289,-69.71403 56.41123,-109.619065 119.0646,-109.619065 15.26599,0 30.4727,2.370025 44.57098,7.255015 24.13508,8.361802 45.53448,24.64564 60.22074,45.52624 2.2152,3.1507 4.07467,6.37882 5.67884,9.66127 l -101.88973,-15.07 c -1.25007,-0.18447 -2.49025,-0.27504 -3.71726,-0.27504 -11.1518,0 -21.04696,7.41806 -24.15648,18.15152 -45.01568,4.48972 -86.95478,34.98384 -81.69097,85.29625 0.0248,0.24376 0.0528,0.59786 0.0824,1.04749 0.94538,14.10651 -10.12737,25.96982 -24.2207,26.30252 -10.86853,0.25857 -21.42578,2.21521 -31.40657,5.61131"
     style="fill:#ecf2fa;fill-opacity:1;fill-rule:nonzero;stroke:none;stroke-width:0.1647"
     id="path7100" />
  <path
     d="m 490.4684,484.35035 c -34.05327,0 -68.08021,-3.98738 -100.94271,-12.79057 l 80.98441,-9.12434 c 3.56905,3.24128 8.10652,5.49602 13.23526,6.25528 l 72.57815,10.73511 c -6.6934,1.06725 -13.39996,1.9171 -20.05217,2.58744 -15.20671,1.53334 -30.50564,2.33708 -45.80294,2.33708 m 145.75415,-33.52129 25.67007,-173.54391 c 13.86441,18.21576 23.02828,40.01046 25.60254,62.74229 0.75597,6.67527 0.9322,13.41478 0.54022,20.12463 -1.44113,24.81528 -10.59842,49.20234 -26.58416,68.21856 -7.37196,8.76859 -15.88856,16.18831 -25.22867,22.45843 m -165.57904,-65.70689 -4.3596,-38.68298 c -0.0592,-0.53198 -0.47103,-0.9355 -0.98325,-0.99973 -0.0594,-0.0642 -0.12682,-0.12019 -0.20258,-0.16634 l -15.09472,-9.3747 c 3.3714,-1.97146 6.54681,-4.40077 9.43729,-7.2929 l 11.10075,-11.09909 c 4.1916,-4.19161 4.1916,-10.98712 0,-15.17872 l -37.88584,-37.88582 c -2.09662,-2.09498 -4.84217,-3.14247 -7.58935,-3.14247 -2.74555,0 -5.49274,1.04749 -7.58936,3.14247 l -18.94209,18.94374 c -0.74114,0.74114 -1.71287,1.11172 -2.68295,1.11172 -0.97173,0 -1.9418,-0.37058 -2.68295,-1.11172 l -23.51087,-23.51087 c 9.9808,-3.39611 20.53803,-5.35273 31.40656,-5.6113 14.09334,-0.33271 25.16608,-12.19602 24.2207,-26.30253 -0.0296,-0.44964 -0.0577,-0.80373 -0.0824,-1.04749 -5.2638,-50.31241 36.67529,-80.80654 81.69098,-85.29625 -0.31458,1.08702 -0.55999,2.20698 -0.72963,3.35659 L 470.64346,385.12217 M 293.26535,357.17102 c 0.28988,-3.6168 0.7675,-7.21384 1.43949,-10.77795 1.84956,-9.8062 5.01015,-19.2122 9.2808,-28.01868 l 0.80374,0.42163 3.06176,2.53143 2.17075,19.27314 -16.75654,16.57043 m 14.77027,-46.4008 c 8.14109,-13.99617 19.1809,-26.17735 32.19216,-35.60805 l 17.88143,17.88143 -13.79029,13.63876 -36.2833,4.08786"
     style="fill:#d0ddf3;fill-opacity:1;fill-rule:nonzero;stroke:none;stroke-width:0.1647"
     id="path7102" />
  <path
     d="m 712.14904,157.27683 c -8.96625,0 -16.23609,-7.26819 -16.23609,-16.23607 0,-8.96789 7.26984,-16.23773 16.23609,-16.23773 8.96789,0 16.23772,7.26984 16.23772,16.23773 0,8.96788 -7.26983,16.23607 -16.23772,16.23607"
     style="fill:#f2f6fc;fill-opacity:1;fill-rule:nonzero;stroke:none;stroke-width:0.1647"
     id="path7104" />
  <path
     d="m 355.52512,141.04076 c -10.39913,0 -18.82846,-8.43098 -18.82846,-18.83011 0,-10.39748 8.42933,-18.8268 18.82846,-18.8268 10.39914,0 18.82846,8.42932 18.82846,18.8268 0,10.39913 -8.42932,18.83011 -18.82846,18.83011"
     style="fill:#f2f6fc;fill-opacity:1;fill-rule:nonzero;stroke:none;stroke-width:0.1647"
     id="path7106" />
  <path
     d="m 171.15846,467.55651 c -12.42252,0 -22.49446,-10.07028 -22.49446,-22.49281 0,-12.42405 10.07194,-22.49431 22.49446,-22.49431 12.42253,0 22.49432,10.07026 22.49432,22.49431 0,12.42253 -10.07179,22.49281 -22.49432,22.49281"
     style="fill:#f2f6fc;fill-opacity:1;fill-rule:nonzero;stroke:none;stroke-width:0.152349"
     id="path7108" />
  <path
     d="m 520.82582,205.82531 c 0,47.59982 -38.58582,86.18726 -86.18728,86.18726 -47.59816,0 -86.18726,-38.58744 -86.18726,-86.18726 0,-47.59981 38.5891,-86.18727 86.18726,-86.18727 47.60146,0 86.18728,38.58746 86.18728,86.18727"
     style="fill:#b092d0;fill-opacity:1;fill-rule:nonzero;stroke:none;stroke-width:0.1647"
     id="path7110" />
  <path
     d="m 494.48377,267.89398 c -0.21081,0 -0.42163,-0.0806 -0.58139,-0.24211 -0.32116,-0.32116 -0.32116,-0.84325 0,-1.16442 16.12245,-16.12243 25.00304,-37.55973 25.00304,-60.36074 0,-22.80266 -8.88059,-44.23829 -25.00304,-60.36238 C 477.77829,129.6419 456.34265,120.7613 433.54,120.7613 c -22.80101,0 -44.23665,8.8806 -60.36074,25.00303 -0.32116,0.32281 -0.84326,0.32281 -1.16443,0 -0.32116,-0.32116 -0.32116,-0.84162 0,-1.16443 16.43373,-16.43371 38.28442,-25.4856 61.52517,-25.4856 23.2424,0 45.09308,9.05189 61.5268,25.4856 16.43373,16.43373 25.48561,38.28441 25.48561,61.52681 0,23.24076 -9.05188,45.09144 -25.48561,61.52516 -0.16139,0.16141 -0.37221,0.24211 -0.58303,0.24211"
     style="fill:#253460;fill-opacity:1;fill-rule:nonzero;stroke:none;stroke-width:0.1647"
     id="path7112" />
  <path
     d="m 500.22519,205.82531 c 0,36.22237 -29.36263,65.58666 -65.58665,65.58666 -36.22072,0 -65.585,-29.36429 -65.585,-65.58666 0,-36.22237 29.36428,-65.58665 65.585,-65.58665 36.22402,0 65.58665,29.36428 65.58665,65.58665"
     style="fill:#ffffff;fill-opacity:1;fill-rule:nonzero;stroke:none;stroke-width:0.1647"
     id="path7114" />
  <path
     d="m 434.63854,272.23546 c -36.61763,0 -66.40849,-29.7925 -66.40849,-66.41015 0,-36.61765 29.79086,-66.41014 66.40849,-66.41014 0.45623,0 0.82351,0.36892 0.82351,0.82349 0,0.45622 -0.36728,0.8235 -0.82351,0.8235 -35.7085,0 -64.7615,29.05299 -64.7615,64.76315 0,35.71016 29.053,64.76316 64.7615,64.76316 0.45623,0 0.82351,0.36727 0.82351,0.8235 0,0.45456 -0.36728,0.82349 -0.82351,0.82349"
     style="fill:#253460;fill-opacity:1;fill-rule:nonzero;stroke:none;stroke-width:0.1647"
     id="path7116" />
  <path
     d="M 451.63059,218.36059 H 433.7887 c -3.65963,0 -6.6374,-2.97776 -6.6374,-6.63739 v -24.73622 c 0,-3.18529 2.58084,-5.76448 5.7645,-5.76448 3.18363,0 5.76447,2.57919 5.76447,5.76448 v 19.84465 h 12.95032 c 3.18366,0 5.76449,2.58083 5.76449,5.76448 0,3.18364 -2.58083,5.76448 -5.76449,5.76448"
     style="fill:#253460;fill-opacity:1;fill-rule:nonzero;stroke:none;stroke-width:0.1647"
     id="path7118" />
  <path
     d="m 307.7326,165.14452 31.78703,31.78867"
     style="fill:#f0f5fa;fill-opacity:1;fill-rule:nonzero;stroke:none;stroke-width:0.1647"
     id="path7130" />
  <path
     d="m 434.17574,291.58765 31.78701,31.78866"
     style="fill:#f0f5fa;fill-opacity:1;fill-rule:nonzero;stroke:none;stroke-width:0.1647"
     id="path7134" />
  <path
     d="M 605.45502,486.69238 483.74536,468.69072 c -13.76229,-2.03569 -23.26875,-14.84273 -21.23307,-28.60337 l 43.65197,-295.11357 c 2.03569,-13.76231 14.84108,-23.26875 28.60337,-21.23306 l 121.70967,18.00165 c 13.76064,2.03568 23.2671,14.84273 21.23142,28.60502 l -43.65033,295.11192 c -2.03568,13.76393 -14.84106,23.26875 -28.60337,21.23307"
     style="fill:#253460;fill-opacity:1;fill-rule:nonzero;stroke:none;stroke-width:0.1647"
     id="path7138" />
  <path
     d="M 625.55825,452.32947 474.44972,429.97645 515.67071,151.2933 666.77926,173.64302 625.55825,452.32947"
     style="fill:#f0f5fa;fill-opacity:1;fill-rule:nonzero;stroke:none;stroke-width:0.1647"
     id="path7140" />
  <path
     d="m 663.6862,194.55492 -151.10854,-22.34973 3.09305,-20.91189 151.10855,22.35137 -3.09306,20.91025"
     style="fill:#b092d0;fill-opacity:1;fill-rule:nonzero;stroke:none;stroke-width:0.1647"
     id="path7142" />
  <path
     d="m 547.4248,450.23778 c -1.74912,0 -3.44552,0.55833 -4.87676,1.61901 -1.76063,1.30771 -2.9086,3.22316 -3.22811,5.39555 -0.32282,2.17073 0.22069,4.33819 1.5284,6.09881 1.30937,1.7623 3.22483,2.91025 5.39556,3.23141 4.48642,0.66539 8.66649,-2.44578 9.32859,-6.92562 0.31952,-2.17073 -0.22398,-4.33653 -1.53171,-6.09716 -1.30606,-1.76393 -3.22316,-2.91024 -5.39391,-3.23141 -0.40681,-0.0592 -0.81691,-0.0905 -1.22206,-0.0905 z m 0.0263,18.08071 c -0.47927,0 -0.96184,-0.0362 -1.44935,-0.1087 -2.60555,-0.38374 -4.90476,-1.76063 -6.476,-3.87538 -1.56957,-2.11804 -2.22177,-4.71699 -1.83639,-7.32418 0.38541,-2.60554 1.76394,-4.90476 3.87868,-6.47434 2.11474,-1.56959 4.71865,-2.22838 7.32089,-1.8364 2.60556,0.38539 4.90475,1.76229 6.47598,3.87703 1.5696,2.11474 2.2218,4.71535 1.83641,7.32089 -0.72468,4.89322 -4.94593,8.42108 -9.75022,8.42108"
     style="fill:#f0f5fa;fill-opacity:1;fill-rule:nonzero;stroke:none;stroke-width:0.1647"
     id="path7144" />
  <path
     d="m 569.28041,143.93452 c -0.32445,0 -0.63903,0.10378 -0.90419,0.3014 -0.32775,0.2421 -0.54021,0.59621 -0.59951,0.99973 -0.0592,0.40351 0.0411,0.80373 0.28329,1.13149 0.24376,0.3261 0.59785,0.54021 1.00137,0.5995 0.4068,0.0609 0.80373,-0.0428 1.13149,-0.28493 0.3261,-0.24212 0.54021,-0.59621 0.5995,-0.99973 0.0593,-0.40351 -0.0428,-0.80538 -0.28493,-1.13148 -0.24211,-0.32775 -0.59787,-0.54021 -0.99973,-0.59951 z m 0.006,4.69558 c -0.15318,0 -0.30964,-0.0111 -0.46611,-0.0346 -0.83832,-0.12352 -1.57782,-0.56657 -2.08344,-1.24679 -0.50398,-0.68019 -0.7148,-1.51687 -0.58963,-2.35519 0.12352,-0.83668 0.56656,-1.57617 1.24678,-2.08181 0.67856,-0.50563 1.51029,-0.71809 2.35355,-0.58962 0.83667,0.12353 1.57782,0.56657 2.0818,1.24677 0.50562,0.68022 0.71479,1.51524 0.59127,2.35357 v 0 c -0.23222,1.57451 -1.58935,2.70765 -3.13422,2.70765"
     style="fill:#f0f5fa;fill-opacity:1;fill-rule:nonzero;stroke:none;stroke-width:0.1647"
     id="path7146" />
  <path
     d="m 579.8113,145.49093 c -0.74279,0 -1.395,0.54516 -1.50699,1.30277 -0.0594,0.40187 0.0411,0.80375 0.28328,1.13149 0.24376,0.32611 0.5995,0.53857 1.00137,0.5995 l 38.55123,5.70025 c 0.83172,0.12682 1.60911,-0.45127 1.73099,-1.28465 0.0592,-0.40187 -0.0411,-0.80374 -0.28329,-1.12985 -0.24376,-0.32774 -0.59785,-0.54021 -1.00137,-0.60113 l -38.55122,-5.70026 z m 38.55946,10.39913 c -0.15646,0 -0.31292,-0.0111 -0.47104,-0.0346 l -38.55121,-5.7019 c -0.83833,-0.12353 -1.57783,-0.56658 -2.08181,-1.24678 -0.50563,-0.68022 -0.71645,-1.51688 -0.59127,-2.3552 0.12353,-0.83667 0.56656,-1.57618 1.24513,-2.0818 0.68186,-0.50564 1.52183,-0.71151 2.35519,-0.59128 l 38.55123,5.7019 c 0.83832,0.12352 1.57782,0.56657 2.08345,1.24677 0.50397,0.68185 0.71479,1.51688 0.58962,2.3552 -0.12352,0.83668 -0.56656,1.57618 -1.24512,2.08181 -0.55339,0.4101 -1.2089,0.62586 -1.88417,0.62586"
     style="fill:#f0f5fa;fill-opacity:1;fill-rule:nonzero;stroke:none;stroke-width:0.1647"
     id="path7148" />
  <path
     d="m 626.18246,367.05957 -105.41099,-15.5921 c -1.71618,-0.25363 -3.31212,0.93384 -3.56739,2.65002 l -4.04502,27.34506 c -0.25364,1.71782 0.93219,3.3154 2.64837,3.56739 l 90.12193,13.33078 9.28411,12.8054 1.65358,-11.18805 4.35138,0.64398 c 1.71616,0.25363 3.31374,-0.93056 3.56738,-2.64672 l 4.04502,-27.34837 c 0.25364,-1.71616 -0.93219,-3.31375 -2.64837,-3.56739"
     style="fill:#ccdaf2;fill-opacity:1;fill-rule:nonzero;stroke:none;stroke-width:0.1647"
     id="path7150" />
  <path
     d="m 605.92936,399.18422 -0.1202,-0.01 -90.12193,-13.33078 c -1.04749,-0.15152 -1.97145,-0.70492 -2.6039,-1.55641 -0.6308,-0.85151 -0.89267,-1.8957 -0.73786,-2.94482 l 4.04503,-27.34672 c 0.31952,-2.16252 2.33379,-3.68268 4.50288,-3.34176 l 24.35905,3.60527 c 0.44964,0.0658 0.76092,0.48422 0.6934,0.93385 -0.0658,0.44798 -0.48752,0.76091 -0.93385,0.69339 l -24.36071,-3.60527 c -1.26654,-0.17624 -2.44413,0.69173 -2.63189,1.95662 l -4.04502,27.34507 c -0.0906,0.61268 0.0626,1.22536 0.4315,1.72111 0.36893,0.49739 0.90914,0.82021 1.52182,0.91079 l 90.12196,13.33243 c 0.44962,0.0658 0.76091,0.48421 0.69337,0.93384 -0.0592,0.40845 -0.41175,0.70327 -0.81362,0.70327"
     style="fill:#253460;fill-opacity:1;fill-rule:nonzero;stroke:none;stroke-width:0.1647"
     id="path7152" />
  <path
     d="m 642.94394,253.74465 -105.411,-15.59047 c -1.71617,-0.25363 -3.31376,0.93056 -3.5674,2.64673 l -4.04502,27.34836 c -0.25363,1.71616 0.93056,3.31375 2.64673,3.56739 l 90.12194,13.32914 9.2841,12.80702 1.65523,-11.18803 4.35137,0.64232 c 1.71616,0.25529 3.31376,-0.93055 3.56575,-2.64671 l 4.04501,-27.34836 c 0.2553,-1.71618 -0.93055,-3.31211 -2.64671,-3.56739"
     style="fill:#ccdaf2;fill-opacity:1;fill-rule:nonzero;stroke:none;stroke-width:0.1647"
     id="path7154" />
  <path
     d="M 632.4921,299.97086 622.22638,285.81 532.44702,272.53192 c -2.1625,-0.32116 -3.66128,-2.34038 -3.34177,-4.50288 0.0676,-0.45129 0.48588,-0.74938 0.93551,-0.69504 0.44963,0.0676 0.76091,0.48587 0.69503,0.93549 -0.0923,0.61269 0.0626,1.22373 0.43152,1.72112 0.36727,0.49739 0.90914,0.82021 1.52181,0.91079 l 90.46287,13.38018 8.3025,11.45156 1.48065,-10.00384 5.16497,0.7642 c 0.61105,0.089 1.22373,-0.0626 1.72113,-0.43152 0.49573,-0.36891 0.82019,-0.90913 0.91078,-1.52182 l 2.6912,-18.19271 c 0.0658,-0.44963 0.48255,-0.75597 0.93385,-0.69503 0.44962,0.0676 0.76091,0.48587 0.69501,0.9355 l -2.69117,18.19271 c -0.15483,1.04749 -0.70822,1.97145 -1.55807,2.6039 -0.85149,0.6308 -1.89898,0.89267 -2.94318,0.73785 l -3.53609,-0.52375 -1.83147,12.37223"
     style="fill:#253460;fill-opacity:1;fill-rule:nonzero;stroke:none;stroke-width:0.1647"
     id="path7156" />
  <path
     d="m 509.51754,288.98047 105.411,15.59209 c 1.71617,0.25365 2.90037,1.85123 2.64837,3.56739 l -4.04502,27.34672 c -0.25529,1.71617 -1.85123,2.902 -3.56739,2.64837 l -90.12193,-13.32913 -12.59458,9.56739 1.65523,-11.18639 -4.34972,-0.64233 c -1.71617,-0.25528 -2.902,-1.85122 -2.64837,-3.56738 l 4.04502,-27.34837 c 0.25364,-1.71616 1.85123,-2.90199 3.56739,-2.64836"
     style="fill:#b092d0;fill-opacity:1;fill-rule:nonzero;stroke:none;stroke-width:0.1647"
     id="path7158" />
  <path
     d="m 610.43225,338.99313 c -0.19435,0 -0.39199,-0.0148 -0.58963,-0.0444 L 553.5862,330.6281 c -0.44962,-0.0658 -0.76091,-0.48422 -0.69338,-0.93385 0.0658,-0.44962 0.48256,-0.7642 0.93549,-0.69339 l 56.25641,8.31898 c 0.61269,0.0874 1.22208,-0.0626 1.72113,-0.43151 0.49573,-0.36892 0.82019,-0.90915 0.91078,-1.52182 l 4.04503,-27.34836 c 0.18609,-1.26325 -0.6901,-2.44414 -1.95499,-2.6319 -0.44799,-0.0658 -0.75927,-0.48423 -0.69339,-0.9355 0.0676,-0.44798 0.48422,-0.75597 0.93549,-0.69338 2.16251,0.32116 3.66128,2.33874 3.34175,4.50288 l -4.04501,27.34671 c -0.15483,1.04749 -0.70821,1.97311 -1.55971,2.6039 -0.6901,0.51222 -1.50864,0.78233 -2.35355,0.78233"
     style="fill:#253460;fill-opacity:1;fill-rule:nonzero;stroke:none;stroke-width:0.1647"
     id="path7160" />
  <path
     d="m 625.55825,452.32947 -151.10853,-22.35302 3.79302,-25.64043 151.10855,22.35137 -3.79304,25.64208"
     style="fill:#ffffff;fill-opacity:1;fill-rule:nonzero;stroke:none;stroke-width:0.1647"
     id="path7162" />
  <path
     d="m 500.54307,420.50622 c -0.7428,5.02168 -5.41532,8.49191 -10.43702,7.74747 -5.02168,-0.7428 -8.49026,-5.41532 -7.74581,-10.437 0.74279,-5.02005 5.41532,-8.49028 10.43537,-7.74748 5.02168,0.74279 8.49025,5.41533 7.74746,10.43701"
     style="fill:#ccdaf2;fill-opacity:1;fill-rule:nonzero;stroke:none;stroke-width:0.1647"
     id="path7164" />
  <path
     d="m 611.987,445.41538 c -0.39691,0 -0.79878,-0.028 -1.20394,-0.089 l -97.9287,-14.48532 c -2.16416,-0.31952 -4.07632,-1.46419 -5.38074,-3.22318 -1.30442,-1.75733 -1.84793,-3.9182 -1.52677,-6.08399 0.60116,-4.0582 4.10432,-6.99808 8.0884,-6.99808 0.40188,0 0.80867,0.0296 1.21713,0.0923 l 97.93035,14.48533 c 4.46994,0.65879 7.56794,4.83229 6.90749,9.30388 -0.60115,4.06643 -4.10924,6.99808 -8.10322,6.99808 m -97.93033,-29.22922 c -3.19517,0 -5.99836,2.33709 -6.48093,5.5899 -0.25529,1.73099 0.17623,3.45539 1.22042,4.86193 1.04255,1.40324 2.56932,2.31896 4.3003,2.57261 l 97.9287,14.48697 c 0.31787,0.046 0.63574,0.0692 0.95032,0.0692 3.19681,0 6.00494,-2.33875 6.48588,-5.58991 0.25527,-1.731 -0.17788,-3.45704 -1.22043,-4.86028 -1.04255,-1.4049 -2.56931,-2.32062 -4.30032,-2.57426 l -97.92869,-14.48697 c -0.32116,-0.046 -0.64068,-0.0692 -0.95525,-0.0692"
     style="fill:#e9ddf1;fill-opacity:1;fill-rule:nonzero;stroke:none;stroke-width:0.1647"
     id="path7166" />
  <path
     d="m 525.06518,161.52114 c -0.33598,0 -0.66208,0.10713 -0.9355,0.31128 -0.33927,0.25033 -0.55997,0.61927 -0.62091,1.03761 -0.0626,0.41504 0.0428,0.83173 0.29481,1.16936 0.25035,0.33928 0.61762,0.55833 1.03596,0.62092 0.85315,0.12846 1.66348,-0.4694 1.79028,-1.33077 0.0626,-0.4167 -0.0411,-0.83174 -0.29316,-1.17102 -0.25199,-0.33763 -0.61927,-0.55668 -1.03596,-0.61927 z m 0.006,4.80264 c -0.15647,0 -0.31459,-0.0111 -0.47434,-0.0346 -1.75899,-0.26023 -2.97777,-1.90228 -2.71755,-3.66127 0.12517,-0.85314 0.57646,-1.60418 1.2682,-2.11803 0.69174,-0.51387 1.54159,-0.72797 2.39308,-0.59951 1.75899,0.25857 2.97777,1.90062 2.71919,3.66127 -0.23718,1.59923 -1.619,2.75213 -3.18858,2.75213"
     style="fill:#ffffff;fill-opacity:1;fill-rule:nonzero;stroke:none;stroke-width:0.1647"
     id="path7168" />
  <path
     d="m 533.98201,162.84039 c -0.76914,0 -1.44441,0.56327 -1.55969,1.34722 -0.0626,0.4167 0.0411,0.83175 0.29316,1.17102 0.25199,0.33765 0.61926,0.55834 1.03596,0.61928 0.41668,0.0626 0.83337,-0.0411 1.17101,-0.29317 0.33928,-0.25034 0.55834,-0.61762 0.62091,-1.03595 0.0609,-0.4167 -0.0428,-0.83339 -0.2948,-1.17102 -0.25035,-0.33928 -0.61762,-0.55834 -1.03596,-0.62092 z m 0.009,4.80263 c -0.15975,0 -0.31953,-0.0111 -0.47927,-0.0362 -1.759,-0.25857 -2.97777,-1.90063 -2.71919,-3.66127 0.26021,-1.75734 1.90556,-2.97117 3.66291,-2.71754 0.8515,0.12682 1.60418,0.57644 2.11804,1.26819 0.51221,0.69174 0.72468,1.54159 0.5995,2.39473 -0.12682,0.8515 -0.57645,1.60253 -1.26819,2.11639 -0.56162,0.41669 -1.227,0.63574 -1.9138,0.63574"
     style="fill:#ffffff;fill-opacity:1;fill-rule:nonzero;stroke:none;stroke-width:0.1647"
     id="path7170" />
  <path
     d="m 542.72261,164.13327 c -0.33433,0 -0.66043,0.10713 -0.93549,0.31128 -0.33928,0.25034 -0.55832,0.61928 -0.62092,1.03597 -0.0626,0.41668 0.0428,0.83172 0.29318,1.17101 0.25199,0.33763 0.61926,0.55833 1.03595,0.62092 0.85809,0.12018 1.66347,-0.4694 1.79194,-1.33078 0.12682,-0.85973 -0.46939,-1.66346 -1.33078,-1.79193 z m 0.005,4.80263 c -0.15481,0 -0.31457,-0.0111 -0.47268,-0.0346 -1.76064,-0.26188 -2.97776,-1.90392 -2.71754,-3.66292 0.26021,-1.75734 1.90392,-2.97283 3.66127,-2.71753 1.75899,0.26186 2.97776,1.90392 2.71754,3.6629 -0.23552,1.59924 -1.61735,2.75213 -3.18859,2.75213"
     style="fill:#ffffff;fill-opacity:1;fill-rule:nonzero;stroke:none;stroke-width:0.1647"
     id="path7172" />
  <path
     d="m 665.73506,195.68146 -0.1202,-0.009 -139.87602,-20.68955 c -0.44963,-0.0658 -0.76091,-0.48422 -0.69339,-0.93385 0.0658,-0.44963 0.48093,-0.75926 0.93385,-0.69503 l 139.87603,20.68956 c 0.44963,0.0658 0.76092,0.48422 0.69503,0.93549 -0.0609,0.40846 -0.41175,0.70161 -0.81527,0.70161"
     style="fill:#253460;fill-opacity:1;fill-rule:nonzero;stroke:none;stroke-width:0.1647"
     id="path7174" />
  <path
     d="m 607.42319,373.35933 -0.12192,-0.01 -74.63194,-11.03817 c -0.44964,-0.0658 -0.76091,-0.48421 -0.6934,-0.93384 0.0658,-0.45128 0.47764,-0.7708 0.93551,-0.69338 l 74.63194,11.03817 c 0.44963,0.0658 0.76091,0.48421 0.69338,0.93548 -0.0593,0.40846 -0.41174,0.70162 -0.81361,0.70162"
     style="fill:#ffffff;fill-opacity:1;fill-rule:nonzero;stroke:none;stroke-width:0.1647"
     id="path7176" />
  <path
     d="m 563.23924,375.92206 -0.12191,-0.01 -31.76396,-4.69723 c -0.44963,-0.0676 -0.76091,-0.48422 -0.69502,-0.93549 0.0658,-0.44799 0.47762,-0.76421 0.93548,-0.6934 l 31.76561,4.69888 c 0.44962,0.0658 0.76091,0.48421 0.69337,0.93385 -0.0609,0.40845 -0.41173,0.70327 -0.8136,0.70327"
     style="fill:#ffffff;fill-opacity:1;fill-rule:nonzero;stroke:none;stroke-width:0.1647"
     id="path7178" />
  <path
     d="m 552.53542,382.85591 -0.1202,-0.01 -22.29373,-3.29728 c -0.44963,-0.0658 -0.76091,-0.48422 -0.69503,-0.93385 0.0676,-0.44964 0.49082,-0.76422 0.9355,-0.6934 l 22.29374,3.29729 c 0.44962,0.0658 0.7609,0.48423 0.69501,0.93385 -0.0609,0.40845 -0.41339,0.70327 -0.81526,0.70327"
     style="fill:#ffffff;fill-opacity:1;fill-rule:nonzero;stroke:none;stroke-width:0.1647"
     id="path7180" />
  <path
     d="m 606.10723,382.26299 -0.12192,-0.01 -32.82792,-4.85535 c -0.44962,-0.0658 -0.76091,-0.48421 -0.69338,-0.93385 0.0658,-0.44797 0.47927,-0.76585 0.93385,-0.69337 l 32.82956,4.85369 c 0.44797,0.0658 0.75925,0.48421 0.69338,0.9355 -0.0609,0.40844 -0.41174,0.70326 -0.81362,0.70326"
     style="fill:#ffffff;fill-opacity:1;fill-rule:nonzero;stroke:none;stroke-width:0.1647"
     id="path7182" />
  <path
     d="m 598.31036,311.42736 -0.1202,-0.01 -74.6336,-11.03815 c -0.44962,-0.0658 -0.76091,-0.48423 -0.69337,-0.93551 0.0658,-0.44962 0.47927,-0.76749 0.93549,-0.69338 l 74.63196,11.03981 c 0.44962,0.0658 0.76091,0.48421 0.69501,0.93384 -0.0609,0.40846 -0.41339,0.70328 -0.81526,0.70328"
     style="fill:#ffffff;fill-opacity:1;fill-rule:nonzero;stroke:none;stroke-width:0.1647"
     id="path7184" />
  <path
     d="m 554.12641,313.98844 -0.12019,-0.009 -31.7656,-4.69889 c -0.44962,-0.0658 -0.76091,-0.48421 -0.69504,-0.93384 0.0676,-0.44963 0.48588,-0.75762 0.93551,-0.69338 l 31.7656,4.69723 c 0.44963,0.0658 0.76091,0.48422 0.69338,0.93549 -0.0592,0.40846 -0.41175,0.70162 -0.81362,0.70162"
     style="fill:#ffffff;fill-opacity:1;fill-rule:nonzero;stroke:none;stroke-width:0.1647"
     id="path7186" />
  <path
     d="m 587.1322,327.38839 -0.12682,-0.01 -64.41068,-9.99231 c -0.44963,-0.0692 -0.75763,-0.49081 -0.68681,-0.93879 0.0692,-0.44963 0.49245,-0.75597 0.94043,-0.68845 l 64.40904,9.99233 c 0.44964,0.0692 0.75764,0.49079 0.68846,0.93879 -0.0642,0.40679 -0.41504,0.69831 -0.81362,0.69831"
     style="fill:#ffffff;fill-opacity:1;fill-rule:nonzero;stroke:none;stroke-width:0.1647"
     id="path7188" />
  <path
     d="m 596.99441,320.33102 -0.12192,-0.01 -32.82791,-4.85535 c -0.44962,-0.0658 -0.7609,-0.48421 -0.69502,-0.93384 0.0658,-0.44963 0.48091,-0.76421 0.93549,-0.69338 l 32.8279,4.85533 c 0.44963,0.0658 0.76091,0.48422 0.69504,0.93385 -0.0609,0.40846 -0.41175,0.70327 -0.81362,0.70327"
     style="fill:#ffffff;fill-opacity:1;fill-rule:nonzero;stroke:none;stroke-width:0.1647"
     id="path7190" />
  <path
     d="m 523.0542,186.175 105.41099,15.59212 c 1.71618,0.25363 2.90202,1.85122 2.64837,3.56739 l -4.04501,27.34671 c -0.25364,1.71782 -1.85123,2.90201 -3.56739,2.64837 l -90.12195,-13.33078 -12.59291,9.57069 1.65356,-11.18804 -4.34971,-0.64397 c -1.71616,-0.25199 -2.90199,-1.84958 -2.64836,-3.56576 l 4.04502,-27.34836 c 0.25364,-1.71616 1.85122,-2.90035 3.56739,-2.64837"
     style="fill:#b092d0;fill-opacity:1;fill-rule:nonzero;stroke:none;stroke-width:0.1647"
     id="path7192" />
  <path
     d="m 627.06855,233.50471 -0.12019,-0.009 c -0.44963,-0.0676 -0.76091,-0.48587 -0.69502,-0.93551 l 4.04501,-27.34669 c 0.0906,-0.61269 -0.0626,-1.22373 -0.43151,-1.71948 -0.36894,-0.49903 -0.90915,-0.82185 -1.52182,-0.91243 l -65.4483,-9.68104 c -0.44964,-0.0658 -0.75927,-0.48421 -0.69339,-0.93385 0.0676,-0.44962 0.49081,-0.75103 0.93549,-0.69503 l 65.44666,9.68103 c 1.04749,0.15483 1.97146,0.70822 2.60391,1.55807 0.63244,0.84985 0.89431,1.89569 0.73948,2.94318 l -4.04667,27.34672 c -0.0592,0.41009 -0.41174,0.70325 -0.8136,0.70325"
     style="fill:#253460;fill-opacity:1;fill-rule:nonzero;stroke:none;stroke-width:0.1647"
     id="path7194" />
  <path
     d="m 611.84866,208.62191 -0.12193,-0.009 -74.63359,-11.03982 c -0.44963,-0.0658 -0.75927,-0.48421 -0.69338,-0.93548 0.0658,-0.44964 0.47762,-0.75598 0.93549,-0.69339 l 74.63195,11.0398 c 0.44962,0.0658 0.76091,0.48423 0.69503,0.9355 -0.0609,0.40846 -0.41175,0.70162 -0.81363,0.70162"
     style="fill:#ffffff;fill-opacity:1;fill-rule:nonzero;stroke:none;stroke-width:0.1647"
     id="path7196" />
  <path
     d="m 567.66307,211.18464 -0.12019,-0.009 -31.7656,-4.69887 c -0.44962,-0.0658 -0.76091,-0.48423 -0.69339,-0.9355 0.0658,-0.44962 0.48422,-0.75926 0.9355,-0.69338 l 31.76395,4.69723 c 0.44963,0.0676 0.76091,0.48586 0.69503,0.9355 -0.0609,0.40844 -0.41175,0.70326 -0.81526,0.70326"
     style="fill:#ffffff;fill-opacity:1;fill-rule:nonzero;stroke:none;stroke-width:0.1647"
     id="path7198" />
  <path
     d="m 600.6705,224.58295 -0.12846,-0.01 -64.4107,-9.99233 c -0.44797,-0.0692 -0.75761,-0.49081 -0.6868,-0.94043 0.0692,-0.44799 0.49576,-0.74939 0.94044,-0.6868 l 64.41069,9.99232 c 0.44963,0.0708 0.75763,0.49081 0.6868,0.94044 -0.0626,0.4068 -0.41339,0.69668 -0.81197,0.69668"
     style="fill:#ffffff;fill-opacity:1;fill-rule:nonzero;stroke:none;stroke-width:0.1647"
     id="path7200" />
  <path
     d="m 610.53107,217.52557 -0.12192,-0.01 -32.82792,-4.85534 c -0.44962,-0.0676 -0.76091,-0.48422 -0.69337,-0.9355 0.0658,-0.44963 0.47761,-0.75926 0.93385,-0.69338 l 32.82955,4.85535 c 0.44963,0.0658 0.75926,0.48421 0.69338,0.93548 -0.0609,0.40846 -0.41174,0.70327 -0.81361,0.70327"
     style="fill:#ffffff;fill-opacity:1;fill-rule:nonzero;stroke:none;stroke-width:0.1647"
     id="path7202" />
  <path
     d="m 624.25053,261.09354 -0.12191,-0.01 -74.63196,-11.03816 c -0.44963,-0.0676 -0.76092,-0.48586 -0.69503,-0.93549 0.0658,-0.44963 0.47763,-0.76091 0.93549,-0.69504 l 74.6336,11.03981 c 0.44963,0.0676 0.76091,0.48587 0.69338,0.93549 -0.0609,0.40845 -0.41174,0.70327 -0.81361,0.70327"
     style="fill:#ffffff;fill-opacity:1;fill-rule:nonzero;stroke:none;stroke-width:0.1647"
     id="path7204" />
  <path
     d="m 580.06659,263.65461 -0.12192,-0.009 -31.76559,-4.69887 c -0.44963,-0.0676 -0.76091,-0.48422 -0.69339,-0.9355 0.0658,-0.44963 0.48915,-0.76256 0.9355,-0.69338 l 31.76395,4.69887 c 0.44962,0.0658 0.76091,0.48422 0.69504,0.9355 -0.0609,0.40846 -0.41176,0.70161 -0.81363,0.70161"
     style="fill:#ffffff;fill-opacity:1;fill-rule:nonzero;stroke:none;stroke-width:0.1647"
     id="path7206" />
  <path
     d="m 569.36277,270.58847 -0.12191,-0.01 -22.29373,-3.29563 c -0.44964,-0.0676 -0.76092,-0.48588 -0.69503,-0.93551 0.0676,-0.44963 0.48586,-0.76255 0.93549,-0.69503 l 22.29373,3.29728 c 0.44963,0.0676 0.76091,0.48587 0.69502,0.9355 -0.0609,0.40846 -0.41338,0.70327 -0.8136,0.70327"
     style="fill:#ffffff;fill-opacity:1;fill-rule:nonzero;stroke:none;stroke-width:0.1647"
     id="path7208" />
  <path
     d="m 622.93295,269.99555 -0.12193,-0.009 -32.8279,-4.85699 c -0.44963,-0.0658 -0.76091,-0.48422 -0.69339,-0.93549 0.0658,-0.448 0.47763,-0.76258 0.93549,-0.6934 l 32.82792,4.85535 c 0.44963,0.0676 0.76091,0.48586 0.69337,0.93549 -0.0592,0.40846 -0.41174,0.70328 -0.81361,0.70328"
     style="fill:#ffffff;fill-opacity:1;fill-rule:nonzero;stroke:none;stroke-width:0.1647"
     id="path7210" />
  <path
     d="m 472.49144,461.38301 -169.07231,19.04914 c -3.24787,0.36563 -6.17624,-1.96981 -6.54187,-5.21933 L 284.67302,366.90146 c -0.0198,-0.17129 0.10378,-0.3261 0.27506,-0.34586 l 180.17306,-20.29922 c 0.17128,-0.0198 0.3261,0.10541 0.34587,0.27504 l 12.20752,108.35254 c 0.36235,3.22481 -1.95663,6.13505 -5.18309,6.49905"
     style="fill:#f795b4;fill-opacity:1;fill-rule:nonzero;stroke:none;stroke-width:0.1647"
     id="path7212" />
  <path
     d="m 285.54924,367.31651 12.14658,107.80408 c 0.31292,2.79165 2.82954,4.81746 5.63108,4.493 l 169.07231,-19.04915 0.0923,0.81857 -0.0923,-0.81857 c 1.3423,-0.15153 2.54461,-0.81691 3.38622,-1.87099 0.84161,-1.05572 1.22207,-2.37661 1.07055,-3.71726 L 464.7061,347.13093 285.54924,367.31651 m 17.2045,113.97537 c -3.38293,0 -6.30798,-2.54791 -6.69503,-5.98684 L 283.85448,366.9937 c -0.0692,-0.62257 0.38045,-1.18583 1.00136,-1.25667 L 465.0289,345.43782 c 0.63081,-0.0708 1.18584,0.37882 1.25501,1.00137 l 12.20919,108.35418 c 0.19927,1.77711 -0.3047,3.52622 -1.41972,4.92616 -1.11665,1.3983 -2.71095,2.28109 -4.4897,2.48202 l -169.07232,19.04916 c -0.25529,0.0296 -0.50727,0.0411 -0.75762,0.0411"
     style="fill:#253460;fill-opacity:1;fill-rule:nonzero;stroke:none;stroke-width:0.1647"
     id="path7214" />
  <path
     d="m 311.66235,480.43379 c -0.0642,0 -0.10216,-0.0296 -0.11698,-0.089 l 0.50398,-0.056 c 0.0544,0.0263 0.10541,0.0528 0.15811,0.079 l -0.52045,0.0642 c -0.009,0.001 -0.0164,0.001 -0.0246,0.001"
     style="fill:#c0c4d1;fill-opacity:1;fill-rule:nonzero;stroke:none;stroke-width:0.1647"
     id="path7216" />
  <path
     d="m 312.2075,480.36791 c -0.0528,-0.0263 -0.10378,-0.0528 -0.15812,-0.079 l 8.24651,-0.9289 -8.08839,1.00795"
     style="fill:#b0b9d4;fill-opacity:1;fill-rule:nonzero;stroke:none;stroke-width:0.1647"
     id="path7218" />
  <path
     d="m 464.37669,460.69291 -11.55202,-10.19984 -3.19352,-3.11612 c 7.53665,6.39858 13.36701,11.51908 14.74554,13.31596 m -58.0714,-55.6108 -0.10871,-0.10714 3.05683,-2.81142 -2.94812,2.91846 m -91.20238,-19.38677 -29.53885,-18.24378 -0.0148,-0.13505 27.13917,-3.05683 2.41451,21.43566 m 120.29159,-9.40106 -2.87729,-25.53501 32.16582,-3.62505 c 0.006,0 0.0148,-10e-4 0.0231,-10e-4 l 0.0148,0.1367 -29.32641,29.025"
     style="fill:#b8799b;fill-opacity:1;fill-rule:nonzero;stroke:none;stroke-width:0.1647"
     id="path7220" />
  <path
     d="m 311.5454,480.34485 c -0.0182,-0.0676 -0.003,-0.17622 0.0411,-0.32116 l 35.20947,-3.96596 -26.50015,3.30223 -8.2465,0.92889 -0.50399,0.056 m -25.98137,-112.89329 -0.1861,-0.11364 0.17128,-0.0198 0.0148,0.13341 m -0.89103,-0.5501 v 0 c 0,-0.005 0,-0.0111 -10e-4,-0.0164 l 0.003,0.0182 m 180.04624,-19.63382 -0.0148,-0.13834 c 0.0708,-0.01 0.14,-0.0263 0.20586,-0.051 l -0.19104,0.18942"
     style="fill:#253460;fill-opacity:1;fill-rule:nonzero;stroke:none;stroke-width:0.1647"
     id="path7222" />
  <path
     d="m 284.94808,366.5556 74.50843,-73.68493 c 4.44195,-4.40571 11.32474,-5.19132 16.64618,-1.90064 l 88.56058,55.00142 c 0.14987,0.0938 0.0988,0.3261 -0.079,0.34586 l -179.94578,20.27451 0.30964,-0.0362"
     style="fill:#f795b4;fill-opacity:1;fill-rule:nonzero;stroke:none;stroke-width:0.1647"
     id="path7224" />
  <path
     d="m 368.97779,289.7595 c -3.25941,0 -6.48588,1.25994 -8.94155,3.6975 L 287.21599,365.47187 462.67206,345.70463 375.66953,291.67 c -2.07522,-1.283 -4.39255,-1.9105 -6.69174,-1.9105 m -84.24712,77.65089 -0.13671,-1.21219 -0.22398,-0.22729 0.17952,-0.17788 -0.003,-0.0198 0.0263,-0.003 74.30419,-73.48399 c 4.73018,-4.69064 11.99343,-5.52073 17.65909,-2.01593 l 88.56224,55.00307 c 0.36398,0.22399 0.54515,0.65879 0.45292,1.07713 -0.0938,0.41999 -0.44304,0.73456 -0.86797,0.78396 l -179.95236,20.27617"
     style="fill:#253460;fill-opacity:1;fill-rule:nonzero;stroke:none;stroke-width:0.1647"
     id="path7226" />
  <path
     d="m 284.63844,366.59182 v 0 0 m 2.57755,-1.11995 23.04146,-22.78618 2.24651,19.93687 -25.28797,2.84931 m 145.11677,-16.34807 -2.69614,-23.93579 33.03544,20.51662 -30.3393,3.41917 M 346.96403,306.38426 360.03624,293.457 c 2.45567,-2.43756 5.68214,-3.6975 8.94155,-3.6975 2.29919,0 4.61652,0.6275 6.69174,1.9105 l 15.6448,9.71728 -44.3503,4.99698"
     style="fill:#b8799b;fill-opacity:1;fill-rule:nonzero;stroke:none;stroke-width:0.1647"
     id="path7228" />
  <path
     d="m 284.63844,366.59182 v 0 l 0.30964,-0.0362 25.19079,-24.91246 0.11858,1.04255 -23.04146,22.78619 25.28797,-2.84931 0.0923,0.81857 -27.95777,3.15068 m 147.78655,-16.65111 -0.0923,-0.81691 30.33929,-3.41916 -33.03544,-20.51662 -0.11697,-1.04255 35.14359,21.82598 c 0.14988,0.0938 0.0988,0.3261 -0.079,0.34587 l -32.15923,3.62339 m -86.78347,-43.40822 13.815,-13.66182 c 2.60555,-2.58413 6.05435,-3.92314 9.5328,-3.92314 2.45073,0 4.91465,0.66209 7.11339,2.0225 l 16.53253,10.26903 -1.3209,0.14823 -15.64481,-9.71728 c -2.0752,-1.283 -4.39253,-1.9105 -6.69173,-1.9105 -3.25941,0 -6.48587,1.25993 -8.94154,3.6975 l -13.07221,12.92726 -1.32253,0.14822"
     style="fill:#253460;fill-opacity:1;fill-rule:nonzero;stroke:none;stroke-width:0.1647"
     id="path7230" />
  <path
     d="m 367.69478,401.26108 -56.00773,77.92264 152.88234,-17.22428 -71.9424,-63.50814 c -7.50536,-6.62586 -19.09033,-5.31979 -24.93221,2.80978"
     style="fill:#f795b4;fill-opacity:1;fill-rule:nonzero;stroke:none;stroke-width:0.1647"
     id="path7232" />
  <path
     d="m 381.42414,395.04038 c -0.59622,0 -1.19573,0.033 -1.79358,0.10043 -4.51113,0.50727 -8.61709,2.91353 -11.26711,6.60115 l -54.92401,76.41565 149.19309,-16.80923 -70.55069,-62.27949 c -2.95143,-2.60555 -6.75763,-4.02854 -10.6577,-4.02854 m -71.48786,85.16941 57.08981,-79.42963 0.66869,0.48091 -0.66869,-0.48091 c 2.92013,-4.06316 7.44772,-6.71646 12.41999,-7.27479 4.97229,-0.55997 9.97421,1.01784 13.72607,4.3283 l 73.33246,64.7368 -156.56833,17.63932"
     style="fill:#253460;fill-opacity:1;fill-rule:nonzero;stroke:none;stroke-width:0.1647"
     id="path7234" />
  <path
     d="M 294.04443,313.17482 411.8046,299.90827 c 7.71947,-0.87125 14.58909,3.85563 15.34506,10.55725 l 7.56793,67.17601 -32.74719,30.09882 -43.27317,4.87676 -42.74447,-26.73402 -7.33242,-65.08433 -14.57591,-7.62394"
     style="fill:#ffffff;fill-opacity:1;fill-rule:nonzero;stroke:none;stroke-width:0.1647"
     id="path7236" />
  <path
     d="m 316.72686,385.39558 42.16307,26.37003 42.71977,-4.81251 32.24158,-29.6344 -7.52182,-66.7626 c -0.33764,-2.99919 -2.00934,-5.6739 -4.70712,-7.53006 -2.73566,-1.88087 -6.18776,-2.69613 -9.7255,-2.29921 l -115.0871,12.9668 12.57975,6.5781 7.33737,65.12385 m 41.77604,28.07303 -43.32422,-27.09802 -7.32749,-65.04314 -11.21439,-9.27258 115.07557,-12.96515 c 3.93138,-0.4414 7.78204,0.47268 10.84381,2.5792 3.09636,2.13121 5.01841,5.22262 5.41203,8.70436 l 7.61406,67.59106 -33.25283,30.56493 -43.82654,4.93934"
     style="fill:#253460;fill-opacity:1;fill-rule:nonzero;stroke:none;stroke-width:0.1647"
     id="path7238" />
  <path
     d="m 323.43836,461.42417 32.70603,-49.43127 1.94675,1.21713 -34.65278,48.21414"
     style="fill:#b8799b;fill-opacity:1;fill-rule:nonzero;stroke:none;stroke-width:0.1647"
     id="path7240" />
  <path
     d="m 449.63115,447.37695 c -2.39309,-2.03239 -4.95746,-4.19324 -7.60583,-6.41505 l -38.04064,-33.58223 2.32061,-2.29756 43.32586,42.29484"
     style="fill:#b8799b;fill-opacity:1;fill-rule:nonzero;stroke:none;stroke-width:0.1647"
     id="path7242" />
  <path
     d="m 452.82467,450.49307 -10.79935,-9.53117 c 2.64837,2.22181 5.21274,4.38266 7.60583,6.41505 l 3.19352,3.11612 m -48.83999,-43.1134 -0.20588,-0.18282 2.41778,-2.22179 0.10871,0.10713 -2.32061,2.29755"
     style="fill:#89658b;fill-opacity:1;fill-rule:nonzero;stroke:none;stroke-width:0.1647"
     id="path7244" />
  <path
     d="m 358.88993,411.76561 -1.8364,-1.14795 10.64125,-16.08127 c 3.32692,-4.62806 8.51331,-7.04419 13.74912,-7.04419 3.96101,0 7.95004,1.38183 11.18309,4.23608 l 12.3887,12.09387 -2.47873,2.2778 -9.36481,-8.26628 c -3.25446,-2.87235 -7.44936,-4.44028 -11.74968,-4.44028 -0.65715,0 -1.31758,0.0379 -1.97639,0.11203 -4.97227,0.55833 -9.49986,3.21164 -12.41999,7.27479 v 0 l -7.87592,10.95746 -0.26024,0.028"
     style="fill:#c0c4d1;fill-opacity:1;fill-rule:nonzero;stroke:none;stroke-width:0.1647"
     id="path7246" />
  <path
     d="m 358.09114,413.21003 v 0 l -1.94675,-1.21713 0.90914,-1.37524 1.8364,1.14795 0.26024,-0.028 -1.05903,1.47241 m 45.68766,-6.01317 -1.24184,-1.09691 2.47873,-2.27779 1.18089,1.15291 -2.41778,2.22179"
     style="fill:#253460;fill-opacity:1;fill-rule:nonzero;stroke:none;stroke-width:0.1647"
     id="path7248" />
  <path
     d="m 367.69478,401.26108 -56.00773,77.92264 152.88234,-17.22428 -71.9424,-63.50814 c -7.50536,-6.62586 -19.09033,-5.31979 -24.93221,2.80978"
     style="fill:#f795b4;fill-opacity:1;fill-rule:nonzero;stroke:none;stroke-width:0.1647"
     id="path7250" />
  <path
     d="m 381.42414,395.04038 c -0.59622,0 -1.19573,0.033 -1.79358,0.10043 -4.51113,0.50727 -8.61709,2.91353 -11.26711,6.60115 l -54.92401,76.41565 149.19309,-16.80923 -70.55069,-62.27949 c -2.95143,-2.60555 -6.75763,-4.02854 -10.6577,-4.02854 m -71.48786,85.16941 57.08981,-79.42963 0.66869,0.48091 -0.66869,-0.48091 c 2.92013,-4.06316 7.44772,-6.71646 12.41999,-7.27479 4.97229,-0.55997 9.97421,1.01784 13.72607,4.3283 l 73.33246,64.7368 -156.56833,17.63932"
     style="fill:#253460;fill-opacity:1;fill-rule:nonzero;stroke:none;stroke-width:0.1647"
     id="path7252" />
  <path
     d="m 331.99121,475.73327 41.13041,-57.2265 c 2.44414,-3.3994 6.25364,-5.17322 10.09937,-5.17322 2.9086,0 5.83697,1.01456 8.21028,3.10954 l 52.83561,46.64126 -112.27567,12.64892"
     style="fill:#f5b8cd;fill-opacity:1;fill-rule:nonzero;stroke:none;stroke-width:0.1647"
     id="path7254" />
  <path
     d="m 285.01561,366.70382 73.68162,45.91329"
     style="fill:#f795b4;fill-opacity:1;fill-rule:nonzero;stroke:none;stroke-width:0.1647"
     id="path7256" />
  <path
     d="m 358.26078,413.31709 -73.68164,-45.91329 0.87128,-1.39996 73.68163,45.91331 -0.87127,1.39994"
     style="fill:#253460;fill-opacity:1;fill-rule:nonzero;stroke:none;stroke-width:0.1647"
     id="path7258" />
  <path
     d="m 465.44889,346.37331 -61.61904,61.15788"
     style="fill:#f795b4;fill-opacity:1;fill-rule:nonzero;stroke:none;stroke-width:0.1647"
     id="path7260" />
  <path
     d="m 404.4096,408.11587 -1.15949,-1.16771 61.61904,-61.15789 1.15948,1.16773 -61.61903,61.15787"
     style="fill:#253460;fill-opacity:1;fill-rule:nonzero;stroke:none;stroke-width:0.1647"
     id="path7262" />
  <path
     d="m 311.8814,350.79221 -20.55287,2.31566 -3.30222,-29.32145 c -0.61104,-5.41697 3.28576,-10.3036 8.70272,-10.913 l 0.93385,-0.1054 c 5.41697,-0.61104 10.30361,3.28575 10.91463,8.70273 l 3.30389,29.32146"
     style="fill:#f0f5fa;fill-opacity:1;fill-rule:nonzero;stroke:none;stroke-width:0.1647"
     id="path7264" />
  <path
     d="m 298.78778,313.52893 c -0.34257,0 -0.6868,0.0198 -1.03102,0.0577 l -0.9355,0.1054 c -2.40132,0.27011 -4.55394,1.45758 -6.06094,3.34834 -1.50534,1.88746 -2.1872,4.25253 -1.91545,6.65385 l 3.20999,28.50456 18.91575,-2.13121 -3.21164,-28.50455 c -0.27012,-2.40133 -1.45925,-4.55395 -3.34999,-6.06095 -1.61736,-1.2896 -3.58222,-1.9731 -5.6212,-1.9731 z m -8.18558,40.48974 -3.39445,-30.14167 c -0.31951,-2.83777 0.48422,-5.63107 2.26627,-7.86439 1.78039,-2.23334 4.32501,-3.63823 7.16278,-3.95774 l 0.93549,-0.1054 c 2.84107,-0.31129 5.63109,0.48421 7.86442,2.26626 2.23332,1.7804 3.63984,4.32501 3.95937,7.16443 l 3.39445,30.13837 -22.18833,2.50015"
     style="fill:#253460;fill-opacity:1;fill-rule:nonzero;stroke:none;stroke-width:0.1647"
     id="path7266" />
  <path
     d="m 325.83474,335.52784 c -0.4134,0 -0.76916,-0.31128 -0.81691,-0.73291 -0.051,-0.45127 0.27339,-0.85809 0.72633,-0.91078 l 85.32259,-9.61187 c 0.45786,-0.056 0.85973,0.2734 0.91078,0.72632 0.051,0.45129 -0.27339,0.85809 -0.72631,0.91079 l -85.3226,9.61351 -0.0938,0.005"
     style="fill:#253460;fill-opacity:1;fill-rule:nonzero;stroke:none;stroke-width:0.1647"
     id="path7268" />
  <path
     d="m 329.10403,364.53309 c -0.4134,0 -0.7708,-0.31128 -0.81856,-0.73127 -0.051,-0.45293 0.27504,-0.85974 0.72633,-0.9108 l 85.32259,-9.61186 c 0.44798,-0.0544 0.85973,0.2734 0.91078,0.72633 0.051,0.45292 -0.27339,0.85973 -0.72633,0.91078 l -85.32259,9.61187 -0.0923,0.005"
     style="fill:#253460;fill-opacity:1;fill-rule:nonzero;stroke:none;stroke-width:0.1647"
     id="path7270" />
  <path
     d="m 327.45044,349.8633 c -0.4134,0 -0.77079,-0.31128 -0.81856,-0.73292 -0.0494,-0.45127 0.27505,-0.85808 0.72632,-0.90915 l 36.8713,-4.15536 c 0.44963,-0.0461 0.85973,0.27504 0.91078,0.72798 0.051,0.45127 -0.27339,0.85807 -0.72632,0.90913 l -36.86964,4.15538 -0.0938,0.005"
     style="fill:#253460;fill-opacity:1;fill-rule:nonzero;stroke:none;stroke-width:0.1647"
     id="path7272" />
  <path
     d="m 373.97477,344.61926 c -0.4134,0 -0.77079,-0.30963 -0.81857,-0.73127 -0.0494,-0.45291 0.27506,-0.85973 0.72633,-0.91078 l 38.79827,-4.36948 c 0.45457,-0.0444 0.85973,0.2734 0.91244,0.72632 0.0494,0.45127 -0.27506,0.85973 -0.72633,0.91079 l -38.79826,4.36948 -0.0938,0.005"
     style="fill:#253460;fill-opacity:1;fill-rule:nonzero;stroke:none;stroke-width:0.1647"
     id="path7274" />
  <path
     d="m 330.9569,380.98163 c -0.4134,0 -0.77079,-0.30964 -0.81857,-0.73127 -0.051,-0.45292 0.27506,-0.85973 0.72633,-0.91079 l 36.87129,-4.15372 c 0.44798,-0.046 0.85973,0.27505 0.91079,0.72633 0.051,0.45127 -0.27341,0.85973 -0.72632,0.91079 l -36.8713,4.15372 -0.0923,0.005"
     style="fill:#253460;fill-opacity:1;fill-rule:nonzero;stroke:none;stroke-width:0.1647"
     id="path7276" />
</svg>
