<?xml version="1.0" encoding="UTF-8" standalone="no"?>
<svg
   height="504.799"
   viewBox="0 0 838.547 504.799"
   width="838.547"
   version="1.1"
   id="svg8323"
   sodipodi:docname="contact.svg"
   inkscape:version="1.2.1 (2ed6d7ae0b, 2022-08-22, custom)"
   xmlns:inkscape="http://www.inkscape.org/namespaces/inkscape"
   xmlns:sodipodi="http://sodipodi.sourceforge.net/DTD/sodipodi-0.dtd"
   xmlns="http://www.w3.org/2000/svg"
   xmlns:svg="http://www.w3.org/2000/svg">
  <defs
     id="defs8327" />
  <sodipodi:namedview
     id="namedview8325"
     pagecolor="#ffffff"
     bordercolor="#666666"
     borderopacity="1.0"
     inkscape:showpageshadow="2"
     inkscape:pageopacity="0.0"
     inkscape:pagecheckerboard="0"
     inkscape:deskcolor="#d1d1d1"
     showgrid="false"
     inkscape:zoom="1.8858991"
     inkscape:cx="580.62491"
     inkscape:cy="172.59672"
     inkscape:window-width="1312"
     inkscape:window-height="704"
     inkscape:window-x="0"
     inkscape:window-y="0"
     inkscape:window-maximized="1"
     inkscape:current-layer="svg8323" />
  <path
     d="m 455.24136,37.423067 c 0,0 -2.06088,-9.848531 -12.46263,-9.323391 -10.40174,0.52637 -10.27354,12.101591 -10.27354,12.101591 0,0 -3.18629,-4.166685 -7.6915,0 -4.50521,4.167916 -3.87958,11.114034 -3.87958,11.114034 0,0 -3.16136,-4.167916 -5.91554,0 -2.75535,4.166687 -25.05228,6.482469 -25.05228,6.482469 0,0 20.51146,-0.926067 23.4164,3.240619 2.90375,4.167917 13.50375,1.922235 13.50375,1.922235 0,0 10.69379,9.191798 19.93689,4.561463 9.24428,-4.630334 10.98938,-4.561463 10.98938,-4.561463 0,0 12.93986,2.245682 17.44151,-1.922235 4.50283,-4.166686 0,-8.334603 0,-8.334603 0,0 8.52607,-1.093325 8.0785,-4.251544 -0.44636,-3.156992 -14.30269,-5.009126 -14.30269,-5.009126 0,0 -1.20495,-8.79825 -13.78867,-6.020049"
     style="fill:#8c8cff;fill-opacity:1;fill-rule:nonzero;stroke:none;stroke-width:0.12083"
     id="path1545" />
  <path
     d="m 347.53793,159.11039 c 0,0 2.73754,-13.07931 16.54995,-12.38076 13.81242,0.69732 13.64265,16.07028 13.64265,16.07028 0,0 4.23217,-5.53427 10.21417,0 5.98203,5.53426 5.15222,14.75803 5.15222,14.75803 0,0 4.19892,-5.53427 7.85652,0 3.65758,5.53426 33.26849,8.60886 33.26849,8.60886 0,0 -27.24019,-1.22984 -31.09603,4.30443 -3.85703,5.53426 -17.93299,2.55191 -17.93299,2.55191 0,0 -14.20179,12.20613 -26.47686,6.05694 -12.27505,-6.14919 -14.59234,-6.05694 -14.59234,-6.05694 0,0 -17.18271,2.98235 -23.16235,-2.55191 -5.97964,-5.53427 0,-11.06853 0,-11.06853 0,0 -11.3218,-1.45368 -10.72821,-5.64618 0.59357,-4.19251 18.99428,-6.65218 18.99428,-6.65218 0,0 1.60026,-11.68346 18.3105,-7.99395"
     style="fill:#8c8cff;fill-opacity:1;fill-rule:nonzero;stroke:none;stroke-width:0.12083"
     id="path1547" />
  <path
     d="m -585.0175,231.99461 h -127.616 a 4.775,4.775 0 0 1 -4.775,-4.775 4.774,4.774 0 0 1 4.775,-4.773 h 127.616 a 4.774,4.774 0 0 1 4.775,4.773 4.775,4.775 0 0 1 -4.775,4.775 z"
     fill="#6f7de0"
     id="path8185" />
  <rect
     fill="#fe4777"
     height="14.307"
     rx="1.701"
     width="14.771"
     x="-641.61957"
     y="8.5699472"
     id="rect8189" />
  <rect
     fill="#fe4777"
     height="14.307"
     rx="1.701"
     width="14.771"
     x="-1000.5945"
     y="455.53595"
     id="rect8191" />
  <g
     fill="none"
     id="g8201"
     transform="translate(-1074.6016,2.2379477)">
    <path
       d="m 665.671,272.531 a 10.064,10.064 0 1 1 -10.062,-10.2 10.135,10.135 0 0 1 10.062,10.2 z"
       stroke="#ffffff"
       stroke-linecap="round"
       stroke-linejoin="round"
       stroke-width="1.87"
       transform="translate(171.941,40.319)"
       id="path8193" />
    <path
       d="m 280.529,246.215 a 10.389,10.389 0 1 1 -10.388,-10.534 10.461,10.461 0 0 1 10.388,10.534 z"
       stroke="#ffffff"
       stroke-linecap="round"
       stroke-linejoin="round"
       stroke-width="1.87"
       transform="translate(-258.818,10.567)"
       id="path8195" />
    <path
       d="m 732.557,73.25 h 53.035"
       stroke="#ffffff"
       stroke-linecap="round"
       stroke-linejoin="round"
       stroke-width="1.87"
       id="path8197" />
    <path
       d="M 38.356,397.404 H 155.36"
       stroke="#ffffff"
       stroke-linecap="round"
       stroke-linejoin="round"
       stroke-width="1.87"
       id="path8199" />
  </g>
  <path
     d="m -363.39273,12.934106 h 85.277 a 4.54,4.54 0 0 1 4.54,4.54 v 80.21 a 4.54,4.54 0 0 1 -4.54,4.540004 h -83.828 a 5.989,5.989 0 0 1 -5.989,-5.990004 v -78.76 a 4.54,4.54 0 0 1 4.54,-4.54 z"
     fill="#fe4777"
     id="path8217" />
  <path
     d="m -309.70573,50.282106 a 11.457,11.457 0 1 0 -11.457,11.457 11.457,11.457 0 0 0 11.457,-11.457 z m -20.05,0 a 8.593,8.593 0 1 1 8.593,8.591 8.593,8.593 0 0 1 -8.593,-8.591 z"
     fill="#ffffff"
     id="path8219" />
  <path
     d="m -322.31573,84.067106 a 1.428,1.428 0 0 0 2.311,0 c 0.116,-0.159 0.662,-0.906 1.49,-2.083 l 8.454,-13.076 c 3.928,-6.7 7.52,-14.069 7.52,-18.626 a 18.6185,18.6185 0 1 0 -37.237,0 c 0,4.426 3.389,11.506 7.181,18.046 l 8.8,13.662 c 0.82,1.175 1.364,1.918 1.481,2.077 z m 1.156,-49.538 a 15.752,15.752 0 0 1 15.753,15.754 c 0,6.851 -10.471,23.039 -15.753,30.487 -5.281,-7.448 -15.753,-23.636 -15.753,-30.487 a 15.754,15.754 0 0 1 15.75,-15.754 z"
     fill="#ffffff"
     id="path8221" />
  <path
     d="m -365.61461,339.45184 h 143.993 v 17.335 h -143.993 z"
     fill="#ffffff"
     id="path8255" />
  <path
     d="m -285.32757,506.39795 h -648.013"
     fill="none"
     stroke="#0c0b0c"
     stroke-linecap="round"
     stroke-linejoin="round"
     stroke-width="1.277"
     id="path8319" />
  <path
     d="m -970.89757,506.39795 h -78.22403"
     fill="none"
     stroke="#0c0b0c"
     stroke-linecap="round"
     stroke-linejoin="round"
     stroke-width="1.277"
     id="path8321" />
  <path
     d="m -719.07645,143.27871 c -10.39913,0 -18.82846,-8.43098 -18.82846,-18.83011 0,-10.39748 8.42933,-18.8268 18.82846,-18.8268 10.39914,0 18.82846,8.42932 18.82846,18.8268 0,10.39913 -8.42932,18.83011 -18.82846,18.83011"
     style="fill:#f2f6fc;fill-opacity:1;fill-rule:nonzero;stroke:none;stroke-width:0.1647"
     id="path7106" />
  <path
     d="m -574.88215,320.60335 c -12.42252,0 -22.49446,-10.07028 -22.49446,-22.49281 0,-12.42405 10.07194,-22.49431 22.49446,-22.49431 12.42253,0 22.49432,10.07026 22.49432,22.49431 0,12.42253 -10.07179,22.49281 -22.49432,22.49281"
     style="fill:#f2f6fc;fill-opacity:1;fill-rule:nonzero;stroke:none;stroke-width:0.152349"
     id="path7108" />
  <path
     d="m -766.86897,167.38247 31.78703,31.78867"
     style="fill:#f0f5fa;fill-opacity:1;fill-rule:nonzero;stroke:none;stroke-width:0.1647"
     id="path7130" />
  <path
     d="m -273.54917,314.42985 -169.07231,19.04914 c -3.24787,0.36563 -6.17624,-1.96981 -6.54187,-5.21933 L -461.36759,219.9483 c -0.0198,-0.17129 0.10378,-0.3261 0.27506,-0.34586 l 180.17306,-20.29922 c 0.17128,-0.0198 0.3261,0.10541 0.34587,0.27504 l 12.20752,108.35254 c 0.36235,3.22481 -1.95663,6.13505 -5.18309,6.49905"
     style="fill:#f795b4;fill-opacity:1;fill-rule:nonzero;stroke:none;stroke-width:0.1647"
     id="path7212" />
  <path
     d="m -460.49137,220.36335 12.14658,107.80408 c 0.31292,2.79165 2.82954,4.81746 5.63108,4.493 l 169.07231,-19.04915 0.0923,0.81857 -0.0923,-0.81857 c 1.3423,-0.15153 2.54461,-0.81691 3.38622,-1.87099 0.84161,-1.05572 1.22207,-2.37661 1.07055,-3.71726 l -12.14988,-107.84526 -179.15686,20.18558 m 17.2045,113.97537 c -3.38293,0 -6.30798,-2.54791 -6.69503,-5.98684 l -12.20423,-108.31134 c -0.0692,-0.62257 0.38045,-1.18583 1.00136,-1.25667 l 180.17306,-20.29921 c 0.63081,-0.0708 1.18584,0.37882 1.25501,1.00137 l 12.20919,108.35418 c 0.19927,1.77711 -0.3047,3.52622 -1.41972,4.92616 -1.11665,1.3983 -2.71095,2.28109 -4.4897,2.48202 l -169.07232,19.04916 c -0.25529,0.0296 -0.50727,0.0411 -0.75762,0.0411"
     style="fill:#253460;fill-opacity:1;fill-rule:nonzero;stroke:none;stroke-width:0.1647"
     id="path7214" />
  <path
     d="m -434.37826,333.48063 c -0.0642,0 -0.10216,-0.0296 -0.11698,-0.089 l 0.50398,-0.056 c 0.0544,0.0263 0.10541,0.0528 0.15811,0.079 l -0.52045,0.0642 c -0.009,10e-4 -0.0164,10e-4 -0.0246,10e-4"
     style="fill:#c0c4d1;fill-opacity:1;fill-rule:nonzero;stroke:none;stroke-width:0.1647"
     id="path7216" />
  <path
     d="m -433.83311,333.41475 c -0.0528,-0.0263 -0.10378,-0.0528 -0.15812,-0.079 l 8.24651,-0.9289 -8.08839,1.00795"
     style="fill:#b0b9d4;fill-opacity:1;fill-rule:nonzero;stroke:none;stroke-width:0.1647"
     id="path7218" />
  <path
     d="m -281.66392,313.73975 -11.55202,-10.19984 -3.19352,-3.11612 c 7.53665,6.39858 13.36701,11.51908 14.74554,13.31596 m -58.0714,-55.6108 -0.10871,-0.10714 3.05683,-2.81142 -2.94812,2.91846 m -91.20238,-19.38677 -29.53885,-18.24378 -0.0148,-0.13505 27.13917,-3.05683 2.41451,21.43566 m 120.29159,-9.40106 -2.87729,-25.53501 32.16582,-3.62505 c 0.006,0 0.0148,-0.001 0.0231,-0.001 l 0.0148,0.1367 -29.32641,29.025"
     style="fill:#b8799b;fill-opacity:1;fill-rule:nonzero;stroke:none;stroke-width:0.1647"
     id="path7220" />
  <path
     d="m -434.49521,333.39169 c -0.0182,-0.0676 -0.003,-0.17622 0.0411,-0.32116 l 35.20947,-3.96596 -26.50015,3.30223 -8.2465,0.92889 -0.50399,0.056 m -25.98137,-112.89329 -0.1861,-0.11364 0.17128,-0.0198 0.0148,0.13341 m -0.89103,-0.5501 v 0 c 0,-0.005 0,-0.0111 -10e-4,-0.0164 l 0.003,0.0182 m 180.04624,-19.63382 -0.0148,-0.13834 c 0.0708,-0.01 0.14,-0.0263 0.20586,-0.051 l -0.19104,0.18942"
     style="fill:#253460;fill-opacity:1;fill-rule:nonzero;stroke:none;stroke-width:0.1647"
     id="path7222" />
  <path
     d="m -461.09253,219.60244 74.50843,-73.68493 c 4.44195,-4.40571 11.32474,-5.19132 16.64618,-1.90064 l 88.56058,55.00142 c 0.14987,0.0938 0.0988,0.3261 -0.079,0.34586 l -179.94578,20.27451 0.30964,-0.0362"
     style="fill:#f795b4;fill-opacity:1;fill-rule:nonzero;stroke:none;stroke-width:0.1647"
     id="path7224" />
  <path
     d="m -377.06282,142.80634 c -3.25941,0 -6.48588,1.25994 -8.94155,3.6975 l -72.82025,72.01487 175.45607,-19.76724 -87.00253,-54.03463 c -2.07522,-1.283 -4.39255,-1.9105 -6.69174,-1.9105 m -84.24712,77.65089 -0.13671,-1.21219 -0.22398,-0.22729 0.17952,-0.17788 -0.003,-0.0198 0.0263,-0.003 74.30419,-73.48399 c 4.73018,-4.69064 11.99343,-5.52073 17.65909,-2.01593 l 88.56224,55.00307 c 0.36398,0.22399 0.54515,0.65879 0.45292,1.07713 -0.0938,0.41999 -0.44304,0.73456 -0.86797,0.78396 l -179.95236,20.27617"
     style="fill:#253460;fill-opacity:1;fill-rule:nonzero;stroke:none;stroke-width:0.1647"
     id="path7226" />
  <path
     d="m -461.40217,219.63866 v 0 0 m 2.57755,-1.11995 23.04146,-22.78618 2.24651,19.93687 -25.28797,2.84931 m 145.11677,-16.34807 -2.69614,-23.93579 33.03544,20.51662 -30.3393,3.41917 m -85.36873,-42.73954 13.07221,-12.92726 c 2.45567,-2.43756 5.68214,-3.6975 8.94155,-3.6975 2.29919,0 4.61652,0.6275 6.69174,1.9105 l 15.6448,9.71728 -44.3503,4.99698"
     style="fill:#b8799b;fill-opacity:1;fill-rule:nonzero;stroke:none;stroke-width:0.1647"
     id="path7228" />
  <path
     d="m -461.40217,219.63866 v 0 l 0.30964,-0.0362 25.19079,-24.91246 0.11858,1.04255 -23.04146,22.78619 25.28797,-2.84931 0.0923,0.81857 -27.95777,3.15068 m 147.78655,-16.65111 -0.0923,-0.81691 30.33929,-3.41916 -33.03544,-20.51662 -0.11697,-1.04255 35.14359,21.82598 c 0.14988,0.0938 0.0988,0.3261 -0.079,0.34587 l -32.15923,3.62339 m -86.78347,-43.40822 13.815,-13.66182 c 2.60555,-2.58413 6.05435,-3.92314 9.5328,-3.92314 2.45073,0 4.91465,0.66209 7.11339,2.0225 l 16.53253,10.26903 -1.3209,0.14823 -15.64481,-9.71728 c -2.0752,-1.283 -4.39253,-1.9105 -6.69173,-1.9105 -3.25941,0 -6.48587,1.25993 -8.94154,3.6975 l -13.07221,12.92726 -1.32253,0.14822"
     style="fill:#253460;fill-opacity:1;fill-rule:nonzero;stroke:none;stroke-width:0.1647"
     id="path7230" />
  <path
     d="m -378.34583,254.30792 -56.00773,77.92264 152.88234,-17.22428 -71.9424,-63.50814 c -7.50536,-6.62586 -19.09033,-5.31979 -24.93221,2.80978"
     style="fill:#f795b4;fill-opacity:1;fill-rule:nonzero;stroke:none;stroke-width:0.1647"
     id="path7232" />
  <path
     d="m -364.61647,248.08722 c -0.59622,0 -1.19573,0.033 -1.79358,0.10043 -4.51113,0.50727 -8.61709,2.91353 -11.26711,6.60115 l -54.92401,76.41565 149.19309,-16.80923 -70.55069,-62.27949 c -2.95143,-2.60555 -6.75763,-4.02854 -10.6577,-4.02854 m -71.48786,85.16941 57.08981,-79.42963 0.66869,0.48091 -0.66869,-0.48091 c 2.92013,-4.06316 7.44772,-6.71646 12.41999,-7.27479 4.97229,-0.55997 9.97421,1.01784 13.72607,4.3283 l 73.33246,64.7368 -156.56833,17.63932"
     style="fill:#253460;fill-opacity:1;fill-rule:nonzero;stroke:none;stroke-width:0.1647"
     id="path7234" />
  <path
     d="m -451.99618,166.22166 117.76017,-13.26655 c 7.71947,-0.87125 14.58909,3.85563 15.34506,10.55725 l 7.56793,67.17601 -32.74719,30.09882 -43.27317,4.87676 -42.74447,-26.73402 -7.33242,-65.08433 -14.57591,-7.62394"
     style="fill:#ffffff;fill-opacity:1;fill-rule:nonzero;stroke:none;stroke-width:0.1647"
     id="path7236" />
  <path
     d="m -429.31375,238.44242 42.16307,26.37003 42.71977,-4.81251 32.24158,-29.6344 -7.52182,-66.7626 c -0.33764,-2.99919 -2.00934,-5.6739 -4.70712,-7.53006 -2.73566,-1.88087 -6.18776,-2.69613 -9.7255,-2.29921 l -115.0871,12.9668 12.57975,6.5781 7.33737,65.12385 m 41.77604,28.07303 -43.32422,-27.09802 -7.32749,-65.04314 -11.21439,-9.27258 115.07557,-12.96515 c 3.93138,-0.4414 7.78204,0.47268 10.84381,2.5792 3.09636,2.13121 5.01841,5.22262 5.41203,8.70436 l 7.61406,67.59106 -33.25283,30.56493 -43.82654,4.93934"
     style="fill:#253460;fill-opacity:1;fill-rule:nonzero;stroke:none;stroke-width:0.1647"
     id="path7238" />
  <path
     d="m -422.60225,314.47101 32.70603,-49.43127 1.94675,1.21713 -34.65278,48.21414"
     style="fill:#b8799b;fill-opacity:1;fill-rule:nonzero;stroke:none;stroke-width:0.1647"
     id="path7240" />
  <path
     d="m -296.40946,300.42379 c -2.39309,-2.03239 -4.95746,-4.19324 -7.60583,-6.41505 l -38.04064,-33.58223 2.32061,-2.29756 43.32586,42.29484"
     style="fill:#b8799b;fill-opacity:1;fill-rule:nonzero;stroke:none;stroke-width:0.1647"
     id="path7242" />
  <path
     d="m -293.21594,303.53991 -10.79935,-9.53117 c 2.64837,2.22181 5.21274,4.38266 7.60583,6.41505 l 3.19352,3.11612 m -48.83999,-43.1134 -0.20588,-0.18282 2.41778,-2.22179 0.10871,0.10713 -2.32061,2.29755"
     style="fill:#89658b;fill-opacity:1;fill-rule:nonzero;stroke:none;stroke-width:0.1647"
     id="path7244" />
  <path
     d="m -387.15068,264.81245 -1.8364,-1.14795 10.64125,-16.08127 c 3.32692,-4.62806 8.51331,-7.04419 13.74912,-7.04419 3.96101,0 7.95004,1.38183 11.18309,4.23608 l 12.3887,12.09387 -2.47873,2.2778 -9.36481,-8.26628 c -3.25446,-2.87235 -7.44936,-4.44028 -11.74968,-4.44028 -0.65715,0 -1.31758,0.0379 -1.97639,0.11203 -4.97227,0.55833 -9.49986,3.21164 -12.41999,7.27479 v 0 l -7.87592,10.95746 -0.26024,0.028"
     style="fill:#c0c4d1;fill-opacity:1;fill-rule:nonzero;stroke:none;stroke-width:0.1647"
     id="path7246" />
  <path
     d="m 415.42623,273.70559 h 92.913 a 4.947,4.947 0 0 1 4.947,4.947 v 87.392 a 4.947,4.947 0 0 1 -4.947,4.947 h -91.335 a 6.525,6.525 0 0 1 -6.525,-6.525 v -85.814 a 4.947,4.947 0 0 1 4.947,-4.947 z"
     fill="#f94f4f"
     id="path8213" />
  <path
     d="m 485.35923,330.30259 -6.1,-6.1 a 5.347,5.347 0 0 0 -3.922,-1.854 5.652,5.652 0 0 0 -3.924,1.744 l -3.486,3.488 -0.654,-0.328 a 10.246,10.246 0 0 1 -1.09,-0.544 37.636,37.636 0 0 1 -9.044,-8.282 19.714,19.714 0 0 1 -2.832,-4.468 c 0.87,-0.762 1.634,-1.634 2.4,-2.4 0.328,-0.328 0.654,-0.654 0.98,-0.982 a 5.309,5.309 0 0 0 0,-8.062 l -3.05,-3.052 a 9.72,9.72 0 0 1 -0.98,-1.09 l -2.072,-2.07 a 5.644,5.644 0 0 0 -3.922,-1.742 5.4,5.4 0 0 0 -3.922,1.742 l -3.814,3.814 a 8.769,8.769 0 0 0 -2.506,5.34 19.853,19.853 0 0 0 1.416,8.28 44.6,44.6 0 0 0 8.5,14.276 52.966,52.966 0 0 0 17.434,13.62 28.968,28.968 0 0 0 9.806,2.942 h 0.764 a 8.652,8.652 0 0 0 6.538,-2.834 l 0.108,-0.108 a 16.486,16.486 0 0 1 1.962,-1.962 l 1.416,-1.416 a 5.466,5.466 0 0 0 -0.006,-7.952 z m -2.506,5.666 -1.308,1.308 c -0.762,0.652 -1.416,1.416 -2.18,2.178 a 5.176,5.176 0 0 1 -3.922,1.636 h -0.544 a 22.963,22.963 0 0 1 -8.5,-2.616 49.63,49.63 0 0 1 -16.236,-12.748 47.3,47.3 0 0 1 -7.954,-13.186 13.5,13.5 0 0 1 -1.308,-6.756 4.609,4.609 0 0 1 1.526,-3.16 l 3.7,-3.7 a 2.284,2.284 0 0 1 1.526,-0.764 2.083,2.083 0 0 1 1.526,0.764 l 1.962,1.962 a 10.132,10.132 0 0 0 1.088,1.088 l 3.052,3.052 a 2.559,2.559 0 0 1 0.762,1.526 2.286,2.286 0 0 1 -0.762,1.524 c -0.328,0.328 -0.654,0.654 -0.98,0.982 -0.982,0.98 -1.854,1.852 -2.726,2.724 l -0.104,0.109 a 2.386,2.386 0 0 0 -0.654,2.724 v 0.11 a 25.186,25.186 0 0 0 3.6,5.884 40.418,40.418 0 0 0 9.916,9.044 9.08,9.08 0 0 0 1.416,0.762 10.017,10.017 0 0 1 1.09,0.546 l 0.108,0.108 a 2.5,2.5 0 0 0 3.052,-0.544 l 3.814,-3.814 a 1.8,1.8 0 0 1 2.942,0 l 6.1,6.1 a 2.065,2.065 0 0 1 -0.002,3.157 z"
     fill="#ffffff"
     id="path8215" />
  <path
     d="m -387.94947,266.25687 v 0 l -1.94675,-1.21713 0.90914,-1.37524 1.8364,1.14795 0.26024,-0.028 -1.05903,1.47241 m 45.68766,-6.01317 -1.24184,-1.09691 2.47873,-2.27779 1.18089,1.15291 -2.41778,2.22179"
     style="fill:#253460;fill-opacity:1;fill-rule:nonzero;stroke:none;stroke-width:0.1647"
     id="path7248" />
  <path
     d="m -378.34583,254.30792 -56.00773,77.92264 152.88234,-17.22428 -71.9424,-63.50814 c -7.50536,-6.62586 -19.09033,-5.31979 -24.93221,2.80978"
     style="fill:#f795b4;fill-opacity:1;fill-rule:nonzero;stroke:none;stroke-width:0.1647"
     id="path7250" />
  <path
     d="m -364.61647,248.08722 c -0.59622,0 -1.19573,0.033 -1.79358,0.10043 -4.51113,0.50727 -8.61709,2.91353 -11.26711,6.60115 l -54.92401,76.41565 149.19309,-16.80923 -70.55069,-62.27949 c -2.95143,-2.60555 -6.75763,-4.02854 -10.6577,-4.02854 m -71.48786,85.16941 57.08981,-79.42963 0.66869,0.48091 -0.66869,-0.48091 c 2.92013,-4.06316 7.44772,-6.71646 12.41999,-7.27479 4.97229,-0.55997 9.97421,1.01784 13.72607,4.3283 l 73.33246,64.7368 -156.56833,17.63932"
     style="fill:#253460;fill-opacity:1;fill-rule:nonzero;stroke:none;stroke-width:0.1647"
     id="path7252" />
  <path
     d="m -414.0494,328.78011 41.13041,-57.2265 c 2.44414,-3.3994 6.25364,-5.17322 10.09937,-5.17322 2.9086,0 5.83697,1.01456 8.21028,3.10954 l 52.83561,46.64126 -112.27567,12.64892"
     style="fill:#f5b8cd;fill-opacity:1;fill-rule:nonzero;stroke:none;stroke-width:0.1647"
     id="path7254" />
  <path
     d="m -461.025,219.75066 73.68162,45.91329"
     style="fill:#f795b4;fill-opacity:1;fill-rule:nonzero;stroke:none;stroke-width:0.1647"
     id="path7256" />
  <path
     d="m -387.77983,266.36393 -73.68164,-45.91329 0.87128,-1.39996 73.68163,45.91331 -0.87127,1.39994"
     style="fill:#253460;fill-opacity:1;fill-rule:nonzero;stroke:none;stroke-width:0.1647"
     id="path7258" />
  <path
     d="m -280.59172,199.42015 -61.61904,61.15788"
     style="fill:#f795b4;fill-opacity:1;fill-rule:nonzero;stroke:none;stroke-width:0.1647"
     id="path7260" />
  <path
     d="m -341.63101,261.16271 -1.15949,-1.16771 61.61904,-61.15789 1.15948,1.16773 -61.61903,61.15787"
     style="fill:#253460;fill-opacity:1;fill-rule:nonzero;stroke:none;stroke-width:0.1647"
     id="path7262" />
  <path
     d="m -434.15921,203.83905 -20.55287,2.31566 -3.30222,-29.32145 c -0.61104,-5.41697 3.28576,-10.3036 8.70272,-10.913 l 0.93385,-0.1054 c 5.41697,-0.61104 10.30361,3.28575 10.91463,8.70273 l 3.30389,29.32146"
     style="fill:#f0f5fa;fill-opacity:1;fill-rule:nonzero;stroke:none;stroke-width:0.1647"
     id="path7264" />
  <path
     d="m -447.25283,166.57577 c -0.34257,0 -0.6868,0.0198 -1.03102,0.0577 l -0.9355,0.1054 c -2.40132,0.27011 -4.55394,1.45758 -6.06094,3.34834 -1.50534,1.88746 -2.1872,4.25253 -1.91545,6.65385 l 3.20999,28.50456 18.91575,-2.13121 -3.21164,-28.50455 c -0.27012,-2.40133 -1.45925,-4.55395 -3.34999,-6.06095 -1.61736,-1.2896 -3.58222,-1.9731 -5.6212,-1.9731 z m -8.18558,40.48974 -3.39445,-30.14167 c -0.31951,-2.83777 0.48422,-5.63107 2.26627,-7.86439 1.78039,-2.23334 4.32501,-3.63823 7.16278,-3.95774 l 0.93549,-0.1054 c 2.84107,-0.31129 5.63109,0.48421 7.86442,2.26626 2.23332,1.7804 3.63984,4.32501 3.95937,7.16443 l 3.39445,30.13837 -22.18833,2.50015"
     style="fill:#253460;fill-opacity:1;fill-rule:nonzero;stroke:none;stroke-width:0.1647"
     id="path7266" />
  <path
     d="m -420.20587,188.57468 c -0.4134,0 -0.76916,-0.31128 -0.81691,-0.73291 -0.051,-0.45127 0.27339,-0.85809 0.72633,-0.91078 l 85.32259,-9.61187 c 0.45786,-0.056 0.85973,0.2734 0.91078,0.72632 0.051,0.45129 -0.27339,0.85809 -0.72631,0.91079 l -85.3226,9.61351 -0.0938,0.005"
     style="fill:#253460;fill-opacity:1;fill-rule:nonzero;stroke:none;stroke-width:0.1647"
     id="path7268" />
  <path
     d="m -416.93658,217.57993 c -0.4134,0 -0.7708,-0.31128 -0.81856,-0.73127 -0.051,-0.45293 0.27504,-0.85974 0.72633,-0.9108 l 85.32259,-9.61186 c 0.44798,-0.0544 0.85973,0.2734 0.91078,0.72633 0.051,0.45292 -0.27339,0.85973 -0.72633,0.91078 l -85.32259,9.61187 -0.0923,0.005"
     style="fill:#253460;fill-opacity:1;fill-rule:nonzero;stroke:none;stroke-width:0.1647"
     id="path7270" />
  <path
     d="m -418.59017,202.91014 c -0.4134,0 -0.77079,-0.31128 -0.81856,-0.73292 -0.0494,-0.45127 0.27505,-0.85808 0.72632,-0.90915 l 36.8713,-4.15536 c 0.44963,-0.0461 0.85973,0.27504 0.91078,0.72798 0.051,0.45127 -0.27339,0.85807 -0.72632,0.90913 l -36.86964,4.15538 -0.0938,0.005"
     style="fill:#253460;fill-opacity:1;fill-rule:nonzero;stroke:none;stroke-width:0.1647"
     id="path7272" />
  <path
     d="m -372.06584,197.6661 c -0.4134,0 -0.77079,-0.30963 -0.81857,-0.73127 -0.0494,-0.45291 0.27506,-0.85973 0.72633,-0.91078 l 38.79827,-4.36948 c 0.45457,-0.0444 0.85973,0.2734 0.91244,0.72632 0.0494,0.45127 -0.27506,0.85973 -0.72633,0.91079 l -38.79826,4.36948 -0.0938,0.005"
     style="fill:#253460;fill-opacity:1;fill-rule:nonzero;stroke:none;stroke-width:0.1647"
     id="path7274" />
  <path
     d="m -415.08371,234.02847 c -0.4134,0 -0.77079,-0.30964 -0.81857,-0.73127 -0.051,-0.45292 0.27506,-0.85973 0.72633,-0.91079 l 36.87129,-4.15372 c 0.44798,-0.046 0.85973,0.27505 0.91079,0.72633 0.051,0.45127 -0.27341,0.85973 -0.72632,0.91079 l -36.8713,4.15372 -0.0923,0.005"
     style="fill:#253460;fill-opacity:1;fill-rule:nonzero;stroke:none;stroke-width:0.1647"
     id="path7276" />
  <path
     d="m 607.05297,151.24738 95.49334,-16.73068 -88.28534,3.08933 z"
     style="fill:#8c8cff;fill-opacity:1;fill-rule:nonzero;stroke:none;stroke-width:0.133333"
     id="path1098" />
  <path
     d="m 622.77031,137.3087 v -4.336 l 79.776,1.544 z"
     style="fill:#c183c8;fill-opacity:1;fill-rule:nonzero;stroke:none;stroke-width:0.133333"
     id="path1100" />
  <path
     d="m 617.59697,132.8727 16.48267,-8.652 68.46667,10.296 z"
     style="fill:#8c8cff;fill-opacity:1;fill-rule:nonzero;stroke:none;stroke-width:0.133333"
     id="path1102" />
  <path
     d="m 650.00764,143.60737 50.48,-9.09067 -52.31733,15.72934 z"
     style="fill:#c183c8;fill-opacity:1;fill-rule:nonzero;stroke:none;stroke-width:0.133333"
     id="path1106" />
  <path
     d="m 640.47697,152.55938 -18.75333,5.63866 -1.28667,-9.26666 22.29334,-4.01468 c 0,0 -0.49334,2.888 -0.77467,4.03068 -0.28133,1.14266 -1.47867,3.612 -1.47867,3.612"
     style="fill:#a568ba;fill-opacity:1;fill-rule:nonzero;stroke:none;stroke-width:0.133333"
     id="path1108" />
  <path
     d="m 568.69685,483.88236 c 0.468,0 0.75067,-0.0373 0.81333,-0.048 0.42267,-0.0653 0.712,-0.45867 0.64667,-0.88133 -0.0653,-0.42134 -0.46933,-0.71467 -0.87733,-0.64534 -0.10267,0.012 -9.27333,1.112 -17.44533,-14.43066 -7.008,-13.336 -7.336,-17.34934 -7.23733,-18.34267 0.26267,0.18 0.592,0.48667 0.896,0.768 0.70533,0.656 1.58267,1.472 2.74133,1.94 1.54,0.61867 18.08799,14.7 21.47466,29.472 0.0933,0.416 0.504,0.68133 0.924,0.58 0.41733,-0.0947 0.676,-0.508 0.58133,-0.924 -3.552,-15.49333 -20.58665,-29.82933 -22.40132,-30.56 -0.896,-0.36133 -1.62667,-1.04 -2.26933,-1.63867 -0.67334,-0.62533 -1.252,-1.164 -1.952,-1.30266 -0.45467,-0.0853 -0.89467,0.0853 -1.18,0.468 -1.832,2.45866 3.63466,13.748 7.056,20.25733 7.40533,14.08667 15.63732,15.288 18.22932,15.288"
     style="fill:#3a4679;fill-opacity:1;fill-rule:nonzero;stroke:none;stroke-width:0.133333"
     id="path1160" />
  <path
     d="m 567.51552,482.05703 c 0.22,0 0.43733,-0.0947 0.592,-0.27334 0.27466,-0.328 0.23066,-0.816 -0.0947,-1.09066 -0.10533,-0.0867 -10.54399,-8.94667 -15.06666,-18.556 -0.18133,-0.38534 -0.644,-0.54934 -1.028,-0.36934 -0.38666,0.18134 -0.552,0.64 -0.36933,1.02667 4.66933,9.92133 15.03066,18.71333 15.46932,19.08133 0.14534,0.12267 0.32134,0.18134 0.49734,0.18134"
     style="fill:#3a4679;fill-opacity:1;fill-rule:nonzero;stroke:none;stroke-width:0.133333"
     id="path1162" />
  <path
     d="m 569.34485,463.44236 0.0653,-0.004 c 0.42534,-0.0333 0.74267,-0.40933 0.70534,-0.832 -1.05334,-12.68133 -7.23734,-25.75333 -18.38266,-38.856 -0.468,-0.54933 -0.78933,-0.92533 -0.92267,-1.116 -0.21333,-0.30933 -0.46533,-0.78666 -0.73333,-1.29333 -0.904,-1.69867 -1.63333,-3.04133 -2.69067,-2.74133 -0.91866,0.25466 -1.33466,1.35866 -1.05466,6.67733 0.55866,10.70533 7.82666,31.30666 8.13333,32.17866 0.144,0.40267 0.58933,0.616 0.98667,0.47067 0.40266,-0.14267 0.612,-0.58533 0.47066,-0.98667 -0.076,-0.21066 -7.50133,-21.26133 -8.05066,-31.74399 -0.136,-2.60534 -0.076,-3.93334 0.009,-4.60534 0.28667,0.44934 0.61867,1.07334 0.83333,1.476 0.29867,0.56667 0.58534,1.10134 0.82534,1.44667 0.14533,0.21067 0.5,0.62933 1.01733,1.23867 10.93332,12.852 16.99599,25.63066 18.01999,37.98133 0.0347,0.404 0.37067,0.70933 0.768,0.70933"
     style="fill:#3a4679;fill-opacity:1;fill-rule:nonzero;stroke:none;stroke-width:0.133333"
     id="path1164" />
  <path
     d="m 568.95418,471.03969 0.21734,-0.0307 c 0.40933,-0.12 0.644,-0.54934 0.524,-0.95867 -4.49734,-15.38133 -14.97066,-34.71333 -15.07599,-34.90933 -0.20534,-0.372 -0.67334,-0.50933 -1.048,-0.308 -0.37467,0.20267 -0.51334,0.67333 -0.30934,1.048 0.10534,0.19067 10.49999,19.38133 14.95199,34.604 0.0987,0.336 0.40534,0.55466 0.74,0.55466"
     style="fill:#3a4679;fill-opacity:1;fill-rule:nonzero;stroke:none;stroke-width:0.133333"
     id="path1166" />
  <path
     d="m 573.58485,482.31969 c 0.19333,0 0.38667,-0.0733 0.53467,-0.216 0.53333,-0.51333 13.01733,-12.73333 11.564,-27.95466 -1.268,-13.26933 -4.504,-25.872 -7.06534,-27.52 -0.496,-0.31733 -0.92666,-0.27467 -1.20133,-0.17867 -1.532,0.528 -1.85067,2.788 -2.25333,5.64934 -0.30267,2.144 -0.64667,4.576 -1.52134,6.62933 -2.152,5.05733 -7.328,28.19733 -4.55066,40.73333 0.092,0.41733 0.492,0.67867 0.92133,0.588 0.41733,-0.092 0.67867,-0.50533 0.588,-0.92267 -2.71067,-12.22666 2.356,-34.84799 4.46133,-39.79333 0.95467,-2.24133 1.31467,-4.77866 1.62934,-7.01866 0.25066,-1.77867 0.56133,-3.97067 1.14266,-4.36134 1.43067,0.91067 4.89467,11.52667 6.31067,26.34267 1.38533,14.48666 -10.97067,26.57333 -11.09467,26.69333 -0.308,0.296 -0.31733,0.78667 -0.0213,1.092 0.152,0.15867 0.35467,0.23733 0.556,0.23733"
     style="fill:#3a4679;fill-opacity:1;fill-rule:nonzero;stroke:none;stroke-width:0.133333"
     id="path1168" />
  <path
     d="m 572.57418,480.49169 c 0.29467,0 0.576,-0.17066 0.70534,-0.45733 6.60533,-14.74133 7.744,-35.44666 7.75466,-35.65466 0.0227,-0.42534 -0.30533,-0.78934 -0.73066,-0.80934 l -0.04,-10e-4 c -0.40934,0 -0.75067,0.31867 -0.77067,0.732 -0.0107,0.204 -1.13733,20.628 -7.62267,35.104 -0.17466,0.388 0,0.84533 0.38934,1.01866 l 0.31466,0.068"
     style="fill:#3a4679;fill-opacity:1;fill-rule:nonzero;stroke:none;stroke-width:0.133333"
     id="path1170" />
  <path
     d="m 573.48218,442.3317 c 0.408,0 0.74667,-0.316 0.77067,-0.72667 1.18667,-20.34 -7.24667,-37.89733 -11.3,-46.33467 -0.97067,-2.02133 -1.73599,-3.61733 -1.99332,-4.47733 -0.89467,-2.99867 -2.04,-3.5 -2.82267,-3.39733 -1.16267,0.15333 -2.74133,1.556 -3.02,11.892 -0.34933,13.03733 3.44,35.83866 3.47733,36.068 0.0707,0.42133 0.46534,0.70666 0.88934,0.63333 0.41866,-0.0707 0.704,-0.46933 0.632,-0.88933 -0.036,-0.22667 -3.80134,-22.884 -3.45334,-35.76934 0.25867,-9.62 1.688,-10.40266 1.704,-10.41066 0.068,0.0533 0.59467,0.58133 1.11334,2.31466 0.292,0.97734 1.04133,2.54134 2.08132,4.70534 3.996,8.31866 12.312,25.632 11.15067,45.57466 -0.0253,0.42534 0.3,0.79067 0.72533,0.816 l 0.0453,0.001"
     style="fill:#3a4679;fill-opacity:1;fill-rule:nonzero;stroke:none;stroke-width:0.133333"
     id="path1172" />
  <path
     d="m 569.71285,460.14236 c 0.38667,0 0.72133,-0.292 0.76533,-0.68667 0.25467,-2.31466 -0.57733,-5.83866 -2.08533,-12.23733 -0.76,-3.22133 -1.70533,-7.232 -2.772,-12.18933 -3.11467,-14.44933 -4.89732,-34.46267 -4.91466,-34.66533 -0.036,-0.42267 -0.42,-0.73067 -0.836,-0.7 -0.42533,0.0373 -0.74,0.41066 -0.70133,0.83733 0.0173,0.2 1.80933,20.312 4.94266,34.85333 1.06933,4.97067 2.016,8.98934 2.77866,12.21733 1.46934,6.232 2.27867,9.66534 2.05334,11.71467 -0.048,0.424 0.25866,0.80533 0.68133,0.852 l 0.088,0.004"
     style="fill:#3a4679;fill-opacity:1;fill-rule:nonzero;stroke:none;stroke-width:0.133333"
     id="path1174" />
  <path
     d="m 557.75286,487.74503 c 0.332,0 0.63733,-0.21467 0.74,-0.548 0.12267,-0.40667 -0.10667,-0.83867 -0.516,-0.96134 -0.52,-0.15866 -1.04667,-0.32133 -1.57333,-0.48666 l 0.21466,-0.156 c 0.172,-0.156 0.44267,-0.512 0.31334,-1.12267 -0.14667,-0.67733 -0.66134,-1.45467 -1.16,-2.20667 l -0.164,-0.248 c 2.892,1.084 6.89599,2.27734 9.66665,1.08 0.392,-0.168 0.57067,-0.624 0.40134,-1.01466 -0.17067,-0.392 -0.624,-0.57334 -1.01467,-0.40134 -2.632,1.13734 -7.29199,-0.64533 -8.82399,-1.228 -0.53867,-0.20933 -1.54533,-0.59733 -2.08133,0.076 -0.54134,0.67467 -0.008,1.47867 0.728,2.59067 0.24666,0.372 0.53333,0.804 0.728,1.168 -0.43867,-0.104 -1.03867,-0.288 -1.52267,-0.43867 -1.28133,-0.4 -2.73067,-0.852 -3.94667,-0.852 h -0.016 c -0.86533,10e-4 -1.108,0.412 -1.15866,0.756 -0.10534,0.72134 -0.176,1.19734 8.96266,3.96134 l 0.22267,0.032"
     style="fill:#3a4679;fill-opacity:1;fill-rule:nonzero;stroke:none;stroke-width:0.133333"
     id="path1176" />
  <path
     d="m 576.17952,481.85969 0.35733,-0.088 c 0.12933,-0.068 3.212,-1.69733 5.684,-4.36533 1.25467,-1.35333 2.18933,-1.68667 2.60133,-1.56667 0.168,0.048 0.272,0.192 0.31334,0.42534 0.108,0.6 0.48,0.82533 0.69333,0.904 0.732,0.27733 1.456,-0.30667 2.29333,-0.984 l 0.212,-0.16667 -0.0253,0.27333 c -0.136,1.55467 -0.34267,3.904 1.32933,4.672 0.38267,0.17734 0.84667,0.0107 1.024,-0.37866 0.17734,-0.388 0.008,-0.84667 -0.37866,-1.024 -0.68267,-0.31467 -0.528,-2.08 -0.436,-3.136 0.1,-1.152 0.16666,-1.91334 -0.468,-2.276 -0.696,-0.39334 -1.40667,0.176 -2.22534,0.83466 -0.18133,0.14534 -0.432,0.34934 -0.64933,0.50267 -0.236,-0.556 -0.67733,-0.96267 -1.24533,-1.12933 -0.68667,-0.2 -2.128,-0.20534 -4.17334,2 -2.28266,2.468 -5.236,4.03066 -5.264,4.04666 -0.37866,0.19867 -0.52533,0.664 -0.32533,1.04134 0.136,0.264 0.404,0.41466 0.68267,0.41466"
     style="fill:#3a4679;fill-opacity:1;fill-rule:nonzero;stroke:none;stroke-width:0.133333"
     id="path1178" />
  <path
     d="m 660.49445,490.16174 c 1.25867,0 2.63867,-0.0787 4.11067,-0.27734 6.05866,-0.81866 14.88266,-3.94666 22.51466,-14.188 12.64667,-16.976 13.13734,-30.79199 13.34534,-36.69333 0.032,-0.88933 0.056,-1.59333 0.11733,-2.09733 0.32933,-2.652 -0.0173,-5.80933 -1.556,-6.472 -0.40667,-0.17467 -1.21733,-0.312 -2.08667,0.74133 -0.65466,0.79334 -0.80666,1.72534 -0.95466,2.628 -0.28134,1.71067 -0.6,3.65067 -4.38267,5.84534 -7.88667,4.576 -34.18533,21.46266 -41.46,46.52533 -0.11867,0.41066 0.11867,0.83866 0.52667,0.95866 0.41333,0.12 0.83866,-0.11866 0.95733,-0.528 7.11333,-24.51066 32.99067,-41.11599 40.752,-45.62133 4.41333,-2.55866 4.828,-5.08666 5.13067,-6.93066 0.13066,-0.79467 0.23333,-1.42134 0.62266,-1.89467 0.184,-0.22133 0.308,-0.29067 0.34134,-0.29733 0.26266,0.15333 0.944,1.89333 0.576,4.85466 -0.0653,0.53734 -0.0933,1.28667 -0.12667,2.23467 -0.204,5.75467 -0.68133,19.236 -13.04133,35.824 -7.288,9.78133 -15.66534,12.77866 -21.408,13.57066 -6.248,0.85867 -10.83334,-0.61866 -10.876,-0.63466 -0.39867,-0.13467 -0.84134,0.0853 -0.97734,0.492 -0.13333,0.404 0.088,0.84 0.49067,0.97466 0.15333,0.052 3.02933,0.98534 7.384,0.98534"
     style="fill:#3a4679;fill-opacity:1;fill-rule:nonzero;stroke:none;stroke-width:0.133333"
     id="path1180" />
  <path
     d="m 653.18112,487.44707 0.132,-0.0107 c 0.496,-0.084 12.28666,-2.196 24.98933,-13.52933 12.71733,-11.34667 16.51867,-26.77333 16.55467,-26.92666 0.0987,-0.416 -0.156,-0.832 -0.572,-0.932 -0.416,-0.0907 -0.83067,0.156 -0.92934,0.572 -0.036,0.14933 -3.73866,15.12133 -16.08266,26.13466 -12.348,11.01733 -24.10267,13.13867 -24.22,13.15867 -0.42,0.0707 -0.70267,0.47066 -0.62934,0.89066 0.0627,0.37734 0.39067,0.64267 0.75734,0.64267"
     style="fill:#3a4679;fill-opacity:1;fill-rule:nonzero;stroke:none;stroke-width:0.133333"
     id="path1182" />
  <path
     d="m 645.63178,487.1804 c 0.364,0 0.688,-0.26133 0.756,-0.63333 0.0787,-0.41867 -0.2,-0.82133 -0.61733,-0.89867 -0.14667,-0.028 -14.61467,-3.05066 -15.21467,-29.96266 -0.66266,-29.69867 5.37734,-43.91867 9.052,-47.64 0.776,-0.78533 1.448,-1.168 1.78534,-1.03467 1.428,0.57067 1.54933,7.108 1.62133,11.01467 0.0987,5.23067 2.61467,10.26133 6.09467,17.22267 1.188,2.376 2.53333,5.06666 3.92266,8.04933 5.21467,11.212 2.41467,30.55333 2.38667,30.74666 -0.064,0.42134 0.228,0.816 0.64933,0.87734 0.41467,0.0667 0.81467,-0.22667 0.876,-0.65067 0.12267,-0.80933 2.9,-19.98933 -2.51333,-31.624 -1.396,-3.00266 -2.748,-5.70533 -3.94,-8.08933 -3.39067,-6.78133 -5.83867,-11.68133 -5.932,-16.56267 -0.12667,-6.92666 -0.37733,-11.53466 -2.592,-12.41866 -1.50533,-0.60267 -2.97467,0.896 -3.456,1.38533 -5.152,5.21733 -10.088,22.31867 -9.49867,48.75733 0.632,28.26267 15.83467,31.33067 16.48,31.448 l 0.14,0.0133"
     style="fill:#3a4679;fill-opacity:1;fill-rule:nonzero;stroke:none;stroke-width:0.133333"
     id="path1184" />
  <path
     d="m 663.64778,494.05507 h 0.0267 c 4.54933,-0.156 4.70667,-0.964 4.79067,-1.39733 0.108,-0.556 -0.24134,-1.01467 -1.03467,-1.36667 -1.46533,-0.65067 -2.51333,-0.59067 -3.52,-0.53733 -0.82133,0.044 -1.6,0.0867 -2.7,-0.25467 -2.04133,-0.63067 -2.36,-1.40133 -2.36267,-1.408 -0.0933,-0.416 -0.51466,-0.64933 -0.916,-0.55733 -0.416,0.0933 -0.66933,0.532 -0.57733,0.948 0.06,0.25866 0.496,1.596 3.4,2.49333 1.36667,0.42133 2.36533,0.36533 3.23867,0.32133 0.604,-0.036 1.124,-0.0627 1.71733,0.052 -0.62,0.0787 -1.364,0.13867 -2.09067,0.16267 -0.42533,0.016 -0.75866,0.372 -0.744,0.8 0.0133,0.416 0.356,0.744 0.772,0.744"
     style="fill:#3a4679;fill-opacity:1;fill-rule:nonzero;stroke:none;stroke-width:0.133333"
     id="path1186" />
  <path
     d="m 640.27045,489.60574 c 0.20933,0 0.41733,-0.0827 0.56933,-0.248 0.288,-0.31467 0.268,-0.80267 -0.0453,-1.092 -0.50133,-0.46267 -0.98667,-1.01467 -1.31467,-1.468 l 0.0747,0.0853 c 0.55067,0.64533 1.38,1.62267 2.43467,1.07333 1.31466,-0.68133 1.712,-2.19333 1.75333,-2.36266 0.0987,-0.41467 -0.156,-0.832 -0.57067,-0.93334 -0.41866,-0.096 -0.83066,0.156 -0.932,0.57067 -0.068,0.272 -0.37733,1.052 -0.964,1.356 -0.003,-0.0693 -0.344,-0.46933 -0.548,-0.708 -0.564,-0.65733 -1.50533,-1.764 -2.62533,-0.984 -0.33867,0.23333 -0.54267,0.59067 -0.57067,1.004 -0.0867,1.24267 1.52134,2.864 2.216,3.504 0.14934,0.13467 0.33734,0.20267 0.52267,0.20267"
     style="fill:#3a4679;fill-opacity:1;fill-rule:nonzero;stroke:none;stroke-width:0.133333"
     id="path1188" />
  <path
     d="m 645.72378,483.79774 0.31867,-0.068 c 0.388,-0.17734 0.56,-0.63467 0.38667,-1.024 -0.12134,-0.26534 -11.97734,-27.01467 -8.2,-59.084 0.0507,-0.42267 -0.25067,-0.80667 -0.676,-0.85733 -0.412,-0.0667 -0.80667,0.25466 -0.856,0.676 -3.832,32.51066 8.2,59.63333 8.32266,59.90266 0.12934,0.28533 0.41067,0.45467 0.704,0.45467"
     style="fill:#3a4679;fill-opacity:1;fill-rule:nonzero;stroke:none;stroke-width:0.133333"
     id="path1190"
     inkscape:label="path1190" />
  <path
     d="m 656.66512,471.08174 c 0.27866,0 0.55066,-0.15334 0.68666,-0.42 0.10267,-0.19867 10.19334,-20.244 6.93734,-50.292 -2.056,-18.98 -6.22534,-30.524 -8.98534,-38.16133 -1.544,-4.28134 -2.56533,-7.10667 -2.28533,-8.86134 0.144,-0.90933 1.35467,-8.90266 -0.85733,-9.89333 -0.44934,-0.20267 -1.16134,-0.224 -1.98667,0.79067 -2.32533,2.85333 -9.33333,24.45333 -8.924,42.28133 0.0107,0.424 0.34267,0.76133 0.79067,0.75333 0.42533,-0.0107 0.76266,-0.36266 0.75333,-0.79066 -0.412,-17.96667 6.78533,-39.06934 8.57733,-41.26934 l 0.208,-0.22666 c 0.39867,0.85066 0.55334,4.104 -0.088,8.10933 -0.34133,2.152 0.73334,5.12667 2.36,9.63067 2.73467,7.56933 6.86534,19.00933 8.90267,37.80266 3.20267,29.56134 -6.676,49.22667 -6.77467,49.42133 -0.19466,0.38 -0.0467,0.84534 0.33334,1.03867 l 0.352,0.0867"
     style="fill:#3a4679;fill-opacity:1;fill-rule:nonzero;stroke:none;stroke-width:0.133333"
     id="path1192" />
  <path
     d="m 656.41445,453.74574 c 0.41467,0 0.75867,-0.33067 0.772,-0.75067 0.007,-0.26933 0.16667,-6.77333 -2.34933,-20.81466 -2.496,-13.92667 -5.33467,-47.332 -5.36267,-47.66934 -0.0373,-0.424 -0.41867,-0.724 -0.83333,-0.704 -0.42667,0.036 -0.74134,0.408 -0.70534,0.83467 0.0293,0.336 2.87334,33.81333 5.38267,47.81067 2.48133,13.85466 2.32533,20.432 2.324,20.49733 -0.0133,0.42667 0.32133,0.78133 0.748,0.796 h 0.024"
     style="fill:#3a4679;fill-opacity:1;fill-rule:nonzero;stroke:none;stroke-width:0.133333"
     id="path1194" />
  <path
     d="m 675.47578,452.71907 c 0.216,0 0.42934,-0.088 0.58134,-0.26533 0.112,-0.12667 11.17333,-12.976 13.892,-30.21333 2.71466,-17.22134 3.84133,-22.98267 5.59066,-25.46934 1.01734,-1.44666 1.05867,-3.01333 0.10267,-3.904 -0.52933,-0.496 -2.62933,-1.8 -7.40133,2.096 -6.28534,5.13467 -21.08667,23.99734 -24.81334,36.30267 -0.124,0.408 0.10667,0.83867 0.51467,0.96267 0.404,0.12666 0.83867,-0.10534 0.96267,-0.516 3.58533,-11.836 18.31066,-30.648 24.31333,-35.55334 3.00667,-2.45466 4.86133,-2.636 5.372,-2.16266 0.30267,0.284 0.29333,1.02266 -0.31467,1.88533 -1.94133,2.76267 -3.05066,8.34667 -5.852,26.11733 -2.65066,16.804 -13.42266,29.31734 -13.53066,29.44134 -0.28,0.32 -0.24667,0.80933 0.076,1.08933 0.14533,0.12667 0.32533,0.18933 0.50666,0.18933"
     style="fill:#3a4679;fill-opacity:1;fill-rule:nonzero;stroke:none;stroke-width:0.133333"
     id="path1196" />
  <path
     d="m 658.46378,466.82974 c 0.22134,0 0.44134,-0.0947 0.59334,-0.27867 0.064,-0.076 6.51733,-7.87333 15.06933,-20.30666 8.62,-12.53467 13.22267,-35.03734 13.41467,-35.988 0.084,-0.41734 -0.18667,-0.82534 -0.60667,-0.90934 -0.41733,-0.0853 -0.824,0.188 -0.908,0.604 -0.0453,0.22934 -4.73333,23.14667 -13.17333,35.42 -8.508,12.36933 -14.92134,20.116 -14.984,20.19333 -0.272,0.32667 -0.228,0.81467 0.10133,1.08667 0.144,0.12 0.31733,0.17867 0.49333,0.17867"
     style="fill:#3a4679;fill-opacity:1;fill-rule:nonzero;stroke:none;stroke-width:0.133333"
     id="path1198" />
  <path
     d="m 681.01578,404.52974 c 0.33334,0 0.63867,-0.21467 0.74,-0.54933 0.0493,-0.16534 4.912,-16.508 6.42267,-27.14667 0.36533,-2.576 0.71333,-4.692 0.996,-6.41333 0.74533,-4.532 1.024,-6.228 0.13333,-7.092 -0.60133,-0.58134 -1.46933,-0.41467 -1.75333,-0.35734 -2.508,0.49067 -23.60667,16.604 -28.69867,35.2 -0.11333,0.41067 0.12934,0.836 0.54134,0.94934 0.416,0.112 0.83733,-0.13067 0.948,-0.54134 4.83066,-17.63733 25.2,-33.64133 27.50666,-34.096 0.31067,-0.0587 0.41067,-0.0227 0.412,-0.024 0.26134,0.38667 -0.144,2.85467 -0.61333,5.71067 -0.28267,1.73067 -0.632,3.85733 -1,6.44667 -1.496,10.52533 -6.32667,26.75733 -6.37467,26.92 -0.12133,0.408 0.11067,0.83866 0.51867,0.96133 l 0.22133,0.032"
     style="fill:#3a4679;fill-opacity:1;fill-rule:nonzero;stroke:none;stroke-width:0.133333"
     id="path1200" />
  <path
     d="m 664.02778,427.59374 c 0.364,0 0.688,-0.26133 0.75734,-0.63467 0.0147,-0.0773 1.48533,-7.83733 7.48,-16.56 6.19066,-9.00933 9.93866,-29.12266 10.09466,-29.972 0.076,-0.42266 -0.20133,-0.824 -0.62,-0.90133 -0.42266,-0.068 -0.82133,0.20133 -0.89866,0.62 -0.0373,0.20667 -3.84534,20.64 -9.84934,29.38 -6.192,9.012 -7.66666,16.82933 -7.72666,17.156 -0.0747,0.41867 0.20266,0.82267 0.62133,0.9 l 0.14133,0.012"
     style="fill:#3a4679;fill-opacity:1;fill-rule:nonzero;stroke:none;stroke-width:0.133333"
     id="path1202" />
  <path
     d="m 654.91312,384.17241 h 0.028 c 0.428,-0.0173 0.76,-0.376 0.744,-0.80134 -0.276,-7.368 0.636,-12.23466 3.24666,-17.364 l 0.29734,-0.58133 c 5.156,-10.12133 11.18933,-22.28 12.07866,-26.48533 0.572,-2.71067 1.45867,-3.75067 1.88534,-3.768 l 0.003,-0.001 c 0.0867,0 1.19467,0.092 2.55067,4.568 2.284,7.544 -3.10267,35.66667 -3.15867,35.94934 -0.08,0.41866 0.192,0.824 0.612,0.90533 0.412,0.0733 0.824,-0.192 0.904,-0.612 0.22667,-1.172 5.51467,-28.78267 3.12,-36.69067 -1.152,-3.808 -2.46666,-5.664 -4.01466,-5.664 l -0.0827,10e-4 c -1.99733,0.0853 -2.944,3.16533 -3.33067,4.992 -0.96133,4.544 -8.93866,20.208 -11.94133,26.104 l -0.29733,0.584 c -2.74267,5.38266 -3.70134,10.46266 -3.416,18.12 0.016,0.416 0.35866,0.744 0.772,0.744"
     style="fill:#3a4679;fill-opacity:1;fill-rule:nonzero;stroke:none;stroke-width:0.133333"
     id="path1204" />
  <path
     d="m 660.43578,396.52707 c 0.4,0 0.73734,-0.308 0.76934,-0.712 0.005,-0.1 0.752,-9.888 1.48533,-16.12533 0.71467,-6.08267 8.032,-17.724 8.10667,-17.84133 0.228,-0.36134 0.12,-0.83734 -0.24134,-1.06534 -0.352,-0.22533 -0.83466,-0.12266 -1.06533,0.24134 -0.308,0.48933 -7.57733,12.05866 -8.332,18.484 -0.73733,6.27066 -1.488,16.08933 -1.49467,16.188 -0.032,0.42533 0.28667,0.796 0.712,0.82933 l 0.06,0.001"
     style="fill:#3a4679;fill-opacity:1;fill-rule:nonzero;stroke:none;stroke-width:0.133333"
     id="path1206" />
</svg>
